
  <svg width="26" height="14" viewBox="0 0 26 14" fill="none" xmlns="http://www.w3.org/2000/svg">
    <g clip-path="url(#a)" fill="#2C2A2A">
      <path
        d="M7.39 5.108c0 .284.034.515.094.684.068.17.154.354.273.554a.31.31 0 0 1 .06.177c0 .077-.051.154-.162.23l-.54.324a.441.441 0 0 1-.222.07.414.414 0 0 1-.256-.109 2.427 2.427 0 0 1-.308-.361 5.773 5.773 0 0 1-.265-.454c-.667.708-1.505 1.062-2.515 1.062-.718 0-1.291-.185-1.71-.554-.42-.37-.633-.862-.633-1.477 0-.654.257-1.185.778-1.585.522-.4 1.215-.6 2.096-.6.29 0 .59.023.906.062.317.038.642.1.984.169v-.562c0-.584-.137-.992-.402-1.23-.274-.239-.736-.354-1.394-.354-.3 0-.608.03-.924.1a7.38 7.38 0 0 0-.924.261c-.137.054-.24.085-.299.1a.577.577 0 0 1-.137.023c-.12 0-.18-.076-.18-.238v-.377c0-.123.018-.215.06-.27a.637.637 0 0 1 .24-.16c.3-.14.658-.255 1.078-.347C3.507.146 3.95.1 4.422.1c1.017 0 1.762.208 2.24.623.47.415.71 1.046.71 1.892v2.493h.017ZM3.916 6.277c.282 0 .573-.046.881-.139a1.93 1.93 0 0 0 .813-.492c.136-.146.239-.308.29-.492.052-.185.086-.408.086-.67v-.322A7.863 7.863 0 0 0 5.2 4.03a7.155 7.155 0 0 0-.804-.046c-.573 0-.992.1-1.274.307-.283.208-.42.5-.42.885 0 .361.103.63.317.815.205.193.505.285.898.285Zm6.868.83c-.154 0-.257-.022-.325-.076-.069-.046-.128-.154-.18-.3L8.27.785a1.232 1.232 0 0 1-.077-.308c0-.123.069-.192.206-.192h.838c.162 0 .274.023.333.077.069.046.12.153.171.3l1.437 5.092L12.512.662c.043-.154.095-.254.163-.3a.64.64 0 0 1 .342-.077h.684c.163 0 .274.023.342.077.069.046.129.153.163.3l1.351 5.153 1.48-5.153c.051-.154.111-.254.17-.3a.606.606 0 0 1 .334-.077h.796c.137 0 .214.061.214.192 0 .038-.009.077-.017.123a1.014 1.014 0 0 1-.06.192l-2.061 5.946c-.052.154-.112.254-.18.3a.593.593 0 0 1-.325.077h-.736c-.162 0-.273-.023-.342-.077-.068-.053-.128-.153-.162-.307l-1.326-4.962-1.317 4.954c-.043.154-.094.254-.162.308-.069.054-.189.077-.343.077h-.735Zm10.99.208c-.445 0-.89-.046-1.317-.138-.428-.092-.761-.192-.984-.308-.137-.069-.23-.146-.265-.215a.497.497 0 0 1-.051-.216v-.392c0-.161.068-.238.197-.238.05 0 .102.007.154.023.05.015.128.046.213.077.291.115.608.207.941.269a5.69 5.69 0 0 0 1.018.092c.539 0 .958-.084 1.249-.254.29-.169.444-.415.444-.73a.71.71 0 0 0-.23-.539c-.154-.146-.445-.277-.864-.4L21.04 4c-.625-.177-1.087-.438-1.369-.785-.282-.338-.428-.715-.428-1.115 0-.323.077-.608.231-.854a2.06 2.06 0 0 1 .616-.63c.257-.178.547-.308.89-.4.342-.093.7-.131 1.077-.131.188 0 .385.007.573.03.197.023.377.054.556.085.171.038.334.077.488.123.154.046.273.092.359.139.12.061.205.123.256.192a.385.385 0 0 1 .077.254v.361c0 .162-.068.246-.196.246a.964.964 0 0 1-.325-.092 4.29 4.29 0 0 0-1.642-.3c-.488 0-.873.07-1.138.215a.727.727 0 0 0-.402.685c0 .215.086.4.257.546.17.146.487.293.94.423l1.215.346c.616.177 1.06.424 1.326.739.265.315.393.677.393 1.077 0 .33-.077.63-.222.892-.154.262-.36.492-.625.677-.265.192-.581.33-.949.43a4.489 4.489 0 0 1-1.223.162Z"
      />
      <path
        fill-rule="evenodd"
        clip-rule="evenodd"
        d="M23.391 11.054c-2.813 1.869-6.901 2.861-10.417 2.861-4.926 0-9.365-1.638-12.717-4.361-.266-.216-.026-.508.29-.339 3.627 1.893 8.1 3.039 12.727 3.039 3.121 0 6.551-.585 9.707-1.785.47-.192.872.277.41.585Z"
      />
      <path
        fill-rule="evenodd"
        clip-rule="evenodd"
        d="M24.563 9.854c-.36-.416-2.377-.2-3.293-.1-.273.03-.316-.185-.068-.346 1.608-1.016 4.25-.723 4.558-.385.308.346-.085 2.723-1.59 3.862-.231.177-.454.084-.35-.147.341-.761 1.102-2.476.743-2.884Z"
      />
    </g>
    <defs>
      <clipPath id="a"><path fill="#fff" d="M0 0h26v14H0z" /></clipPath>
    </defs>
  </svg>

