  <svg xmlns="http://www.w3.org/2000/svg" fill="none" viewBox="0 0 21 15" width="22"
      height="14">
    <path
      fill="#2C2A2A"
      d="M12.764 10.162c.62 1.012 1.428 1.755 2.855 1.755 1.2 0 1.966-.598 1.966-1.425 0-.992-.787-1.343-2.108-1.92l-.723-.31c-2.09-.889-3.477-2.002-3.477-4.356 0-2.168 1.654-3.819 4.24-3.819 1.84 0 3.163.64 4.117 2.315L17.38 3.848c-.497-.89-1.032-1.24-1.863-1.24-.848 0-1.386.538-1.386 1.24 0 .867.538 1.218 1.78 1.755l.724.31c2.46 1.053 3.848 2.127 3.848 4.541 0 2.603-2.047 4.03-4.797 4.03-2.688 0-4.425-1.28-5.275-2.957l2.353-1.365Zm-10.226.25c.454.806.868 1.487 1.863 1.487.95 0 1.55-.371 1.55-1.816V.253h2.895v9.869c0 2.993-1.757 4.356-4.322 4.356-2.318 0-3.66-1.198-4.343-2.64l2.357-1.426Z"
    />
  </svg>
