  <svg xmlns="http://www.w3.org/2000/svg" fill="none" viewBox="0 0 30 7">
    <path
      fill="#2C2A2A"
      d="M19.532.506h5.02v.926H22.56v4.874h-.996V1.432h-2.033V.506ZM11.277.506v.926H7.254v1.49h3.236v.927H7.253v1.53h4.023v.927H6.258v-5.8h5.02ZM13.784.508H12.48l4.666 5.8h1.307L16.12 3.41 18.45.513l-1.303.002L15.468 2.6 13.784.508ZM15.12 4.651l-.652-.81-1.991 2.472h1.307l1.337-1.662Z"
    />
    <path
      fill="#2C2A2A"
      fill-rule="evenodd"
      d="M6.293 6.306 1.62.503H.376v5.8h.995v-4.56l3.672 4.563h1.25Z"
      clip-rule="evenodd"
    />
    <path
      fill="#2C2A2A"
      d="M24.775 6.27a.258.258 0 0 1-.186-.075.244.244 0 0 1-.077-.184.24.24 0 0 1 .076-.182.258.258 0 0 1 .187-.075c.07 0 .132.025.184.075a.246.246 0 0 1 .042.313.269.269 0 0 1-.226.129ZM26.475 3.827h.44v1.7c0 .156-.034.29-.1.402a.669.669 0 0 1-.278.259.905.905 0 0 1-.413.09.95.95 0 0 1-.387-.076.623.623 0 0 1-.273-.226.65.65 0 0 1-.1-.373h.441c.001.065.016.121.044.168a.282.282 0 0 0 .118.109c.05.025.108.038.174.038.07 0 .131-.015.18-.045a.283.283 0 0 0 .114-.131.54.54 0 0 0 .04-.215v-1.7ZM28.731 4.492a.32.32 0 0 0-.14-.24.55.55 0 0 0-.322-.087.624.624 0 0 0-.238.041.358.358 0 0 0-.153.112.274.274 0 0 0-.054.162c0 .05.012.094.036.131a.294.294 0 0 0 .097.094c.04.026.085.047.135.064s.1.032.15.044l.23.057c.092.02.181.05.267.086a.948.948 0 0 1 .232.137.593.593 0 0 1 .222.473.645.645 0 0 1-.11.374.725.725 0 0 1-.319.251c-.138.06-.305.09-.502.09-.19 0-.357-.029-.496-.087a.733.733 0 0 1-.329-.255.74.74 0 0 1-.127-.408h.437a.366.366 0 0 0 .079.21.425.425 0 0 0 .181.125.73.73 0 0 0 .251.041.7.7 0 0 0 .255-.043.399.399 0 0 0 .171-.12.282.282 0 0 0 .064-.181.233.233 0 0 0-.056-.157.43.43 0 0 0-.154-.104 1.582 1.582 0 0 0-.23-.075l-.28-.07a1.12 1.12 0 0 1-.478-.234.529.529 0 0 1-.176-.416c0-.142.04-.267.119-.374a.767.767 0 0 1 .32-.25c.137-.06.29-.088.462-.088.174 0 .327.029.458.089.132.059.235.141.31.246a.624.624 0 0 1 .116.362h-.428Z"
    />
  </svg>
