  <svg
    xmlns="http://www.w3.org/2000/svg"
    fill="#fff"
    class="w-7 h-7"
    data-name="Layer 1"
    viewBox="0 -45 432 540"
  >
    <path
      d="m401.5 102.25.02-.07-.43-.84c-1.4-2.92-3.23-5.6-5.4-7.96-5.63-6.16-13.43-9.99-21.93-10.61H58.32c-.03 0-.05.01-.1 0-8.5.62-16.3 4.45-21.92 10.61a32.685 32.685 0 0 0-5.39 7.95l-.44.84.02.07a32.33 32.33 0 0 0-2.77 13.12v201.26c0 18.02 14.78 32.68 32.94 32.68h310.67c18.16 0 32.94-14.66 32.94-32.68V115.37c0-4.66-.99-9.11-2.77-13.12ZM46.92 97.37c2.56-1.92 5.55-3.31 8.79-4.02h.02c.03 0 .06-.01.1-.02h.03a24.3 24.3 0 0 1 4.11-.5h.4c.01.01.06 0 .1 0H371.55c.03 0 .08.02.1 0h.2c.07 0 .19-.02.2 0 1.33.04 2.64.19 3.92.46.03 0 .05 0 .08.02.06.01.12.02.18.04 3.32.72 6.37 2.15 8.98 4.13.01 0 .02.02.03.03 2.13 1.62 3.98 3.63 5.45 5.95-.95 2.6-2.46 4.97-4.43 6.92L229.58 265.62c-7.48 7.41-19.65 7.41-27.12 0L45.76 110.35a18.915 18.915 0 0 1-4.43-6.92c1.5-2.38 3.41-4.42 5.59-6.06Zm-9.08 219.26V116.72c.26.28.52.55.8.82l110.88 109.87L43.96 331.99c-3.79-4.03-6.12-9.43-6.12-15.36Zm333.49 22.57H60.67c-2.86 0-5.6-.52-8.12-1.47l104.16-103.2 38.61 38.26c11.4 11.3 29.96 11.3 41.36 0l39.13-38.77 104.38 103.41a22.879 22.879 0 0 1-8.85 1.77Zm22.82-22.57c0 5.67-2.12 10.85-5.63 14.82L282.99 226.89l110.37-109.36c.27-.27.54-.54.79-.82v199.91Z"
      stroke-width="15"
    />
  </svg>
