  <svg xmlns="http://www.w3.org/2000/svg" class="w-8 h-8" viewBox="0 -35 100 170" stroke-width="4">
    <path
      d="M70 96H2c-1.104 0-2-.9-2-2V18c0-1.1.896-2 2-2h68c1.1 0 2 .9 2 2v76c0 1.1-.9 2-2 2zM4 92h64V20H4v72z"
    />
    <path
      d="M68 36H4c-1.104 0-2-.9-2-2s.896-2 2-2h64c1.1 0 2 .9 2 2s-.9 2-2 2zM12 26a2 2 0 1 1-3.999.001A2 2 0 0 1 12 26zM20 26a2 2 0 1 1-3.999.001A2 2 0 0 1 20 26zM28 26a2 2 0 1 1-3.999.001A2 2 0 0 1 28 26z"
    />
    <path
      d="M94 72H72c-1.1 0-2-.9-2-2s.9-2 2-2h20V4H28v12c0 1.1-.896 2-2 2s-2-.9-2-2V2c0-1.1.896-2 2-2h68c1.1 0 2 .9 2 2v68c0 1.1-.9 2-2 2z"
    />
    <path
      d="M92 20H68c-1.1 0-2-.9-2-2s.9-2 2-2h24c1.1 0 2 .9 2 2s-.9 2-2 2zM36 10a2 2 0 1 1-3.999.001A2 2 0 0 1 36 10zM44 10a2 2 0 1 1-3.999.001A2 2 0 0 1 44 10zM52 10a2 2 0 1 1-3.999.001A2 2 0 0 1 52 10z"
    />
  </svg>
