  <svg xmlns="http://www.w3.org/2000/svg" fill="none" viewBox="0 0 26 23">
    <g clip-path="url(#a)">
      <path
        fill="#2C2A2A"
        d="M13.184 13.749a2.281 2.281 0 0 0 2.27-2.293 2.282 2.282 0 0 0-2.27-2.292 2.282 2.282 0 0 0-2.27 2.292 2.281 2.281 0 0 0 2.27 2.293Z"
      />
      <path
        stroke="#2C2A2A"
        d="M13.184 16.154c6.728 0 12.182-2.103 12.182-4.697 0-2.595-5.454-4.698-12.181-4.698-6.728 0-12.182 2.103-12.182 4.697 0 2.595 5.454 4.698 12.181 4.698Z"
      />
      <path
        stroke="#2C2A2A"
        d="M9.157 13.805c3.363 5.884 7.894 9.602 10.118 8.305 2.225-1.297 1.301-7.118-2.063-13.002C13.85 3.224 9.318-.495 7.094.802 4.869 2.1 5.793 7.921 9.157 13.805Z"
      />
      <path
        stroke="#2C2A2A"
        d="M9.157 9.108C5.793 14.992 4.869 20.813 7.094 22.11c2.224 1.297 6.755-2.421 10.118-8.305C20.576 7.921 21.5 2.099 19.275.802 17.051-.495 12.52 3.224 9.157 9.108Z"
      />
    </g>
    <defs>
      <clipPath id="a">
        <rect width="25.47" height="22.886" x=".45" y=".013" fill="#fff" rx="5" />
      </clipPath>
    </defs>
  </svg>
