  <svg xmlns="http://www.w3.org/2000/svg" fill="none" viewBox="0 0 23 13">
    <path
      fill="#2C2A2A"
      fill-rule="evenodd"
      d="M11.543.181C8.688.181 6.904 1.6 6.19 4.437c1.07-1.419 2.319-1.95 3.746-1.596.814.202 1.396.79 2.04 1.44 1.05 1.058 2.264 2.284 4.917 2.284 2.854 0 4.638-1.419 5.352-4.256-1.07 1.419-2.319 1.95-3.746 1.596-.815-.202-1.397-.79-2.04-1.44C15.41 1.407 14.194.182 11.542.182ZM6.19 6.565c-2.855 0-4.639 1.418-5.352 4.256 1.07-1.419 2.32-1.95 3.746-1.596.814.202 1.397.789 2.04 1.44 1.05 1.058 2.264 2.283 4.918 2.283 2.854 0 4.638-1.418 5.351-4.255-1.07 1.418-2.319 1.95-3.746 1.596-.814-.203-1.396-.79-2.04-1.44-1.05-1.059-2.265-2.284-4.917-2.284Z"
      clip-rule="evenodd"
    />
  </svg>
