<?xml version="1.0" ?><svg data-name="Layer 3" id="Layer_3" fill="#fff" stroke="#FFFFFF20"  style="transform: rotate(35deg);" viewBox="-3 5 45 70" xmlns="http://www.w3.org/2000/svg">
<path d="M12.733,59.964a.994.994,0,0,0,.974-.257,7.772,7.772,0,0,0,2.209-4.377l.377.377a1,1,0,0,0,1.656-.391A20.469,20.469,0,0,0,19,48.838V46.414l.293.293a1,1,0,0,0,1.6-.26A10.537,10.537,0,0,0,21.98,42.4l.313.312a1,1,0,0,0,1.656-.391l.46-1.381a11.507,11.507,0,0,0,.247-6.433l-.058-.235.847.565A1,1,0,0,0,27,34V32.6A7.721,7.721,0,0,0,25.883,28.6l1.921.383a1.01,1.01,0,0,0,.83-.207A1,1,0,0,0,29,28a6.118,6.118,0,0,0-2.167-4.678l1.41-.352a1,1,0,0,0,.464-1.677,7.8,7.8,0,0,0-3.184-1.936L27.6,17.8a1,1,0,0,0-.045-1.632l-1.336-.891a7.615,7.615,0,0,0-2.1-.978l1.592-1.592a1,1,0,0,0-.465-1.677l-2.036-.509a17.431,17.431,0,0,0-13.9,2.408A18.609,18.609,0,0,0,1,28.445a21.687,21.687,0,0,0,1.24,7.24l.44,1.245A140.021,140.021,0,0,1,9.012,62.152a1,1,0,0,0,.772.825A1.057,1.057,0,0,0,10,63a1,1,0,0,0,.832-.445,12.969,12.969,0,0,0,1.437-2.872A1.011,1.011,0,0,0,12.733,59.964ZM11,55.4a10.882,10.882,0,0,1-.525,3.348,141.825,141.825,0,0,0-5.91-22.479l-.439-1.245A19.7,19.7,0,0,1,3,28.445a16.613,16.613,0,0,1,7.414-13.852,15.435,15.435,0,0,1,12.307-2.132l.322.081-1.75,1.751h0A2.394,2.394,0,0,1,19.586,15H18v2h1.586a4.37,4.37,0,0,0,2.737-.976,5.567,5.567,0,0,1,2.786.917l.16.107L22.4,19.2A1,1,0,0,0,23,21h.171a5.792,5.792,0,0,1,2.488.555L23.9,22a11.275,11.275,0,0,1-3.477-.578l-1.1-.367-.632,1.9,1.1.366a13.284,13.284,0,0,0,4.064.679l.027.007a4.115,4.115,0,0,1,2.928,2.74L23.2,26.02a1,1,0,0,0-.751,1.812,5.721,5.721,0,0,1,2.534,4.286L23.757,31.3a14.751,14.751,0,0,0-2.631-3.591l-.419-.419-1.414,1.414.419.419a12.758,12.758,0,0,1,2.349,3.24l.655,2.62a9.515,9.515,0,0,1-.154,5.161l-.578-.577a10.859,10.859,0,0,0-1.816-5.621l-.336-.5-1.664,1.11.336.5A8.886,8.886,0,0,1,20,40v1.764a8.53,8.53,0,0,1-.365,2.457l-.656-.656a16.465,16.465,0,0,0-1.165-5.721l-.885-2.215-1.858.742.887,2.215A14.527,14.527,0,0,1,17,44v4.838a18.468,18.468,0,0,1-.5,4.252l-.525-.525a21.664,21.664,0,0,0-1.536-7.65l-.515-1.286-1.856.742.514,1.286A19.7,19.7,0,0,1,14,53v1.172a5.806,5.806,0,0,1-.554,2.488L13,54.86a25.414,25.414,0,0,0-.753-6.012l-.273-1.09-1.94.484.272,1.09A23.385,23.385,0,0,1,11,55Z"/>
<path d="M12.632,17.921a11.407,11.407,0,0,1,3.587-1.585L15.737,14.4a13.409,13.409,0,0,0-4.214,1.862A14.616,14.616,0,0,0,5,28.445a17.752,17.752,0,0,0,.668,4.827l1.925-.544A15.752,15.752,0,0,1,7,28.445,12.621,12.621,0,0,1,12.632,17.921Z"/>
</svg>