<svg xmlns="http://www.w3.org/2000/svg" version="1.1" viewBox="-5.0 0 110.0 135.0">
 <path d="m93.199 59.418c-1.8203 10.605-7.3828 19.941-15.281 26.59-7.7734 6.543-17.809 10.492-28.754 10.492-12.34 0-23.512-5.0039-31.598-13.09-8.0859-8.0859-13.09-19.258-13.09-31.598 0-9.8906 3.2188-19.035 8.6641-26.441 5.582-7.5938 13.512-13.359 22.711-16.227 0.78906-0.24609 1.6289 0.19531 1.875 0.98438 0.15625 0.50781 0.03125 1.0352-0.28516 1.4102-2.3398 3.0352-4.207 6.4648-5.4727 10.172-1.2266 3.5898-1.8945 7.4453-1.8945 11.461 0 9.7812 3.9648 18.641 10.375 25.051 6.4102 6.4102 15.27 10.375 25.051 10.375 4.8281 0 9.4297-0.96484 13.621-2.7109 4.3555-1.8164 8.2734-4.4766 11.543-7.7734 0.58203-0.58594 1.5312-0.58984 2.1172-0.007812 0.35938 0.35547 0.49609 0.84766 0.42188 1.3125zm-7.6406-44.031 2.0938 6.8125 6.8125 2.0938c0.78906 0.24219 1.2305 1.0781 0.98828 1.8672-0.15234 0.49219-0.53125 0.84766-0.98828 0.98828l-6.8125 2.0938-2.0938 6.8125c-0.24219 0.78906-1.0781 1.2305-1.8672 0.98828-0.49219-0.15234-0.84766-0.53125-0.98828-0.98828l-2.0938-6.8125-6.8125-2.0938c-0.78906-0.24219-1.2305-1.0781-0.98828-1.8672 0.15234-0.49219 0.53125-0.84766 0.98828-0.98828l6.8125-2.0938 2.0938-6.8125c0.24219-0.78906 1.0781-1.2305 1.8672-0.98828 0.49219 0.15234 0.84766 0.53125 0.98828 0.98828zm-18.938 22.539 2.0938 6.8125 6.8125 2.0938c0.78906 0.24219 1.2305 1.0781 0.98828 1.8672-0.15234 0.49219-0.53125 0.84766-0.98828 0.98828l-6.8125 2.0938-2.0938 6.8125c-0.24219 0.78906-1.0781 1.2305-1.8672 0.98828-0.49219-0.15234-0.84766-0.53125-0.98828-0.98828l-2.0938-6.8125-6.8164-2.0938c-0.78906-0.24219-1.2305-1.0781-0.98828-1.8672 0.15234-0.49219 0.53125-0.84766 0.98828-0.98828l6.8164-2.0938 2.0938-6.8125c0.24219-0.78906 1.0781-1.2305 1.8672-0.98828 0.49219 0.15234 0.84766 0.53125 0.98828 0.98828zm-8.4062-33.367 2.0938 6.8125 6.8125 2.0938c0.78906 0.24219 1.2305 1.0781 0.98828 1.8672-0.15234 0.49219-0.53125 0.84766-0.98828 0.98828l-6.8125 2.0938-2.0938 6.8125c-0.24219 0.78906-1.0781 1.2305-1.8672 0.98828-0.49219-0.15234-0.84766-0.53125-0.98828-0.98828l-2.0938-6.8125-6.8125-2.0938c-0.78906-0.24219-1.2305-1.0781-0.98828-1.8672 0.15234-0.49219 0.53125-0.84766 0.98828-0.98828l6.8125-2.0938 2.0938-6.8125c0.24219-0.78906 1.0781-1.2305 1.8672-0.98828 0.49219 0.15234 0.84766 0.53125 0.98828 0.98828z"/>
</svg>