<?xml version="1.0" ?><svg data-name="Layer 1" id="Layer_1" fill="#000" stroke="#000" stroke-width="15px" style="transform: rotateY(180deg);"  viewBox="40 60 512 512" xmlns="http://www.w3.org/2000/svg"><title/><path d="M63.2,426.42a3.25,3.25,0,0,1-.44,0,3.66,3.66,0,0,1-3.14-2.88L46.47,360.7a3.67,3.67,0,0,1,3-4.36c.92-.15,65-12,86.81-126.44,7.28-38.25,29.71-70.31,66.66-95.29C266.67,91.55,371,74.71,462.66,92.72a3.66,3.66,0,0,1,.11,7.15c-.36.08-36.38,8.71-50.09,35.57-7.56,14.8-7.05,32.61,1.52,52.93a3.65,3.65,0,0,1-3.34,5.07c-.44,0-44.25.66-60,25.42-8.37,13.15-7.47,31.12,2.7,53.4a3.66,3.66,0,0,1-4,5.11c-.42-.08-41.62-7.46-64,13.72-12.15,11.52-16.71,29.61-13.54,53.78a3.66,3.66,0,0,1-4.32,4.07c-.63-.13-63.47-12-88.46,11.77-8.35,7.94-11.54,19.31-9.47,33.78a3.65,3.65,0,0,1-4.76,4c-.75-.24-74.67-23.91-98.54,25.86A3.65,3.65,0,0,1,63.2,426.42Zm-8.84-63.71,10.45,49.94c25.52-37.17,79.95-27,97.17-22.61-.91-14.4,3.2-26,12.24-34.64,23.67-22.49,74.06-16.91,90-14.47-2.25-24.23,3.24-42.77,16.33-55.17,19.58-18.53,50.34-17.83,63.75-16.47-8.75-22-8.63-40.27.37-54.38,14.58-22.85,47.89-27.56,60.86-28.53-7.56-20.45-7.35-38.7.64-54.31,9.58-18.74,28.11-29.29,41-34.65C360.93,84,266,100.8,207,140.67c-35.28,23.84-56.66,54.33-63.57,90.6C123.42,336.63,69.27,358.61,54.36,362.71Z" /><path d="M410.83,193.44a3.64,3.64,0,0,1-2.65-1.13c-.51-.49-25.87-23.52-147.93-3.3a3.65,3.65,0,0,1-1.2-7.21c128.3-21.25,153.47,4.42,154.48,5.52a3.64,3.64,0,0,1-.24,5.16A3.59,3.59,0,0,1,410.83,193.44Z" /><path d="M350.21,277.43a3.64,3.64,0,0,1-2.75-1.25c-.42-.47-39.28-42.89-150.91-29.45a3.66,3.66,0,0,1-.87-7.26c116-13.93,155.66,30,157.29,31.91a3.65,3.65,0,0,1-.36,5.15A3.61,3.61,0,0,1,350.21,277.43Z"/><path d="M268.42,349a3.67,3.67,0,0,1-2.78-1.27h0c-.33-.38-34.37-38.41-120.82-25.07a3.65,3.65,0,1,1-1.12-7.22c90.81-14,126,25.83,127.49,27.53a3.65,3.65,0,0,1-2.77,6Z"/><path d="M166.17,398.66a3.63,3.63,0,0,1-2.87-1.39c-.28-.35-23.93-29.09-80.25-27.1a3.65,3.65,0,1,1-.27-7.3c60.35-2.35,85.23,28.57,86.26,29.88a3.64,3.64,0,0,1-2.87,5.91Z" /></svg>