<svg>
<?xml version="1.0" ?><svg id="Livello_1" style="enable-background:new 0 0 226.8 226.8;" version="1.1" viewBox="0 0 226.8 226.8" xml:space="preserve" xmlns="http://www.w3.org/2000/svg" xmlns:xlink="http://www.w3.org/1999/xlink"><style type="text/css">
	.st0{fill:#1D1E1C;}
	.st1{fill:#FFFCF6;}
</style><path class="st0" d="M192.1,94.1c11.2-5.5,3.8,25,1.2,27.5c-2.8,6.2-11.9,11.8-18.4,11.3c-1.1-0.8-2-1.7-2.9-2.7  c-1.1,0.1-1.7,0.3-1.9,0.6c-0.1-0.1-0.1-0.1-0.2-0.2c0.6-1.9,1.4-0.8,3.6-0.5c24.1,3.2,24.7-38.1,19.7-33.9  c-6.3,5.9-9.4,12.4-17.7,15c-1.7,0.7-4.6,0.6-5.5-0.1c1.5-0.2,3-0.9,4.4-2.1C181.6,107.3,186.1,98.9,192.1,94.1z"/><path class="st1" d="M193.1,96.2c5-4.2,4.4,37.1-19.7,33.9c-2.2-0.3-3-1.4-3.6,0.5c0.1,0.1,0.1,0.2,0.2,0.2  c-1.7,2.4,14.6,10.6,17.9,9c1.7,2.7-6.8,6.2-10.6,6.2c-1.9,0.5-3.9-0.5-5.6-0.8l0.4-2c2,0.4,3.7,0.5,4.4,0.2  c-1.4-0.7-3.5-1.1-5.6-1.6c1.2-0.7,2.9-2.4,3.4-2.6c-0.5-1.8-3.8,2.4-4.7,2.2c0,0,0,0.1,0,0.1c-0.6-0.1-1.2-0.3-1.8-0.4  c0.9-0.5,2.3-2,3-2.6c0.3,0,0.6-0.3,0.5-0.5c-0.2-0.2-0.5-0.3-0.8-0.2c0,0,0,0,0,0c0,0,0,0,0,0c-1.2,0.4-2.8,2.9-3.6,2.9  c0,0.1,0,0.2,0,0.2c-0.6-0.2-1.1-0.3-1.7-0.5c4.5-3.3,1.5-2.6-0.6-0.6c-0.1,0.1-0.1,0.2-0.1,0.3c-0.7-0.3-1.3-0.6-1.8-1.1  c0.8-0.6,1.4-1.3,1.9-2c0.1-0.2,0.3-0.5,0.4-0.7c-3.4-0.7-7.4-2.3-9.3-5.2c4-0.9,9.4-3.6,11.5-7.1c2.9,1.9,8.2,0.8,13-2c0,0,0,0,0,0  c0.1,0,0.2-0.1,0.3-0.2c5.3-3.1,10-8.2,10.2-13.2c-2.3,4.5-5.1,8.7-9,11.5c1.4-2.4,3-6.2,2.6-6.6c-2,1.7-3,5.8-4.3,7.8  c-1,0.6-2.1,1.1-3.2,1.5c1.5-2,3.7-7.9,2.5-7.8c-1.4,2.5-2.3,6.1-3.6,8c0,0,0,0.1,0,0.1c-0.6,0.2-1.2,0.3-1.9,0.5  c1.2-1.3,2.5-5.3,2.2-6c-1.7,0.8-2,5-3.3,6.1c0,0,0,0,0,0c-0.6,0.1-1.2,0.1-1.8,0.2c0.6-0.6,0.9-2.8,1.4-3.2c0.9-4.6-2.1,2.6-2.1,3  c0.1,0.1,0.1,0.1,0.2,0.2c-1.1,0-2.2,0-3.3-0.2c0.6-1.1,0.9-2.3,0.8-3.5c0-0.3-0.1-0.7-0.2-1c-4.9,1.9-10.8,3-16,2.9  c5.7-2.7,10-6.6,12.9-12c1-1.4,1.8-3.6,2.1-5.7c1.7-0.4,4.8-5.7,7.2-11.5c2.2-5.4,3.7-11.2,2.8-14.2c-0.6,2.6-1.2,5.4-1.9,8.2  c-0.2-0.4-0.3-0.8-0.4-1c-2.1-5.6-0.9,1.1-0.1,2.2c0.1,0,0.1,0,0.1,0.1c-0.3,1-0.6,2.1-0.9,3.1c-0.3-0.9-0.8-1.9-0.7-2.3  c-0.5-2.3-0.9-1.5-1.2-1.1c0.5,2,1.1,3.7,1.4,4.9c-0.4,1.2-0.9,2.5-1.5,3.7c-0.1-1.4-0.6-3.3-1.1-4.3c0-0.1,0-0.2,0-0.3  c0,0-0.1,0-0.1,0c-0.1-0.3-0.2-0.4-0.3-0.4c-0.2,0.2-0.3,0.4-0.4,0.5c0,0,0,0,0,0c0,0,0,0,0,0c-0.1,0.2,0,0.4,0.1,0.4  c0.4,1.8,0.8,3.6,1.1,5.4c-1.1,2.1-2.4,4.1-4.1,6c0.3-3.5-0.7-6.1-4.4-3c-1.2,1.9-2.5,3.7-3.8,5.4c-0.1,0-0.2,0.1-0.3,0.3  c-0.5,0.7-1.1,1.3-1.6,1.9c0,0-0.1-0.1-0.1-0.1c11.9-14.8,14.1-38.4,25.6-42.7h0.1c5.6,14.3-1.7,35.1-12.6,44.1c0,0,0,0-0.1,0.1  c-0.1,0.2-0.3,0.3-0.3,0.6c0,0.2,0,0.4,0.1,0.8c0.1,0,0.2,0,0.2,0c0.9,0.8,3.7,0.8,5.5,0.1C183.7,108.6,186.8,102.1,193.1,96.2z   M168.9,100.2c1.7,0.7-0.5-5.8-1-6.2C166.7,95.5,169,98.9,168.9,100.2z"/><path class="st0" d="M187.7,137.3c10.9,4-6.4,12.3-14.5,11.3c-0.6-0.6-1.1-1.3-1.4-2c-1.3-0.4-1.9-0.3-2.1,0.1  c-0.2-0.3-0.2-0.6-0.3-1c0.6-0.6,1.4-0.6,2.3-0.4c1.7,0.3,3.7,1.3,5.6,0.8c3.8,0,12.3-3.5,10.6-6.2c-3.2,1.6-19.6-6.6-17.9-9  c1.3,1.3,2.9,1.9,4.8,2.1C178.4,135.6,182.7,137.2,187.7,137.3z"/><path class="st0" d="M190.8,108.6c-0.2,5-4.9,10.1-10.2,13.2c0.3-0.3,0.8-0.9,1.2-1.6C185.7,117.3,188.5,113.1,190.8,108.6z"/><path class="st0" d="M186.7,72.1c0.3,0.9,0.4,2.1,0.4,3.5c0,9.2-5.4,27.2-12.7,33.3c-1.1,0.3-2.3,0.4-3.6,0.3  c-1.3,0.8-1.4,1.5-0.9,1.9c-0.1,0-0.2,0-0.2,0c-0.1-0.3-0.1-0.6-0.1-0.8c0-0.3,0.1-0.5,0.3-0.6c0.1-0.1,0.1-0.1,0.1-0.1  c10.9-9,18.2-29.8,12.6-44.1h-0.1c-11.5,4.3-13.7,27.9-25.6,42.7c-0.3-0.2-0.6-0.1-0.6,0.2c0,0.2,0,0.4,0,0.5  c-0.1,0.2-0.3,0.3-0.4,0.5c-0.3,0.3-0.5,0.6-0.7,0.8c0,0,0,0,0,0c-2,2-4.2,3.9-6.5,5.5c0,0.2,0.1,0.4,0.3,0.4  c-1.6,1.3-3.3,2.5-5,3.5c-3.5,2.1-7.1,3.8-10.8,5.1c-2.5,0.3-5,0.6-7,0.4l-0.2-1c5-1,10.8-2.3,17.8-7.1c9-5.9,14.7-14.2,19.1-23.7  C165.5,85.8,182.6,45,186.7,72.1z M182.6,65.4C182.6,65.2,182.5,65.5,182.6,65.4L182.6,65.4z"/><path class="st0" d="M184.4,113.5c0.4,0.4-1.2,4.3-2.6,6.6c-0.5,0.4-1.1,0.8-1.7,1.1C181.4,119.3,182.4,115.2,184.4,113.5z"/><path class="st0" d="M180.1,121.2c0.6-0.3,1.1-0.7,1.7-1.1c-0.4,0.8-0.9,1.4-1.2,1.6c-0.1,0.1-0.2,0.1-0.3,0.2c0,0,0,0,0,0  c-0.2,0-0.3-0.1-0.3-0.4C180,121.5,180.1,121.4,180.1,121.2z"/><path class="st0" d="M180.5,154.5c2.4,5.7-6.8,8.8-11.3,8.6c-2.1,0.1-3.6-0.1-4.8-0.6c-0.3-1.6-0.7-3-1.4-3c-0.3,0-0.7,0.2-1.1,0.7  c-0.7-1.5,0.3-2.6,1.9-0.9c2.2,2.7,19.2,0.3,13.3-4.9c-2-0.3-7.9-6.3-7.3-7.9c0.6,1.1,1.8,1.7,3.5,1.9  C175.2,150.8,178.3,152.4,180.5,154.5z"/><path class="st0" d="M180.3,122c0.1-0.1,0.2-0.1,0.3-0.2C180.5,121.9,180.4,121.9,180.3,122z"/><path class="st0" d="M179.9,121.6c0.1,0.3,0.2,0.4,0.3,0.4c-4.8,2.8-10.1,3.9-13,2c0-0.1,0.1-0.1,0.1-0.2c1.2,0.1,2.3,0.2,3.3,0.2  c0.2,0.2,0.4,0.1,0.5,0c0.6,0,1.2-0.1,1.8-0.2c0.3,0.4,0.6,0.3,1-0.2c0.6-0.1,1.3-0.3,1.9-0.5c0.1,0.6,0.6,0.3,1-0.3  c1.1-0.4,2.2-0.9,3.2-1.5C180.1,121.4,180,121.5,179.9,121.6z"/><path class="st0" d="M179.5,115c1.2-0.2-1.1,5.8-2.5,7.8c-0.3,0.1-0.7,0.2-1,0.3c0,0,0-0.1,0-0.1C177.2,121.1,178.1,117.5,179.5,115  z"/><path class="st1" d="M177,154.5c5.9,5.2-11.1,7.6-13.3,4.9c-1.5-1.7-2.5-0.6-1.9,0.9c-0.1,0.1-0.2,0.2-0.2,0.3  c0.2,2.1,0.7,4.2,0.8,5.4c-5.3,0.9-9.5-4.6-7.3,4.9c-27.6,4.3-20.5-16.3-29.5-7.7c-2.7-1.2-3.1-4.6-4.5-7.8  c-0.2-0.4-0.3-0.7-0.5-1.1c0-0.1,0.1-0.2,0.1-0.2c-0.1-0.1-0.2-0.2-0.3-0.4c-0.3-0.4-0.6-0.8-1-1.1c0,0,0,0,0,0  c-1.6-1.9-4.1-3.3-8.5-3.6c-0.3-0.1-0.5-0.1-0.6-0.1c-4,0-6.6,1.4-8.4,3.3c0,0-0.1,0.1-0.1,0.1c-0.8,0.8-1.3,1.4-1.7,1.9  c0,0.1,0,0.2,0.1,0.2c-3.3,5.6-2.8,12.6-8,6.4c-4.8-1.8,0.4,13.1-26.6,10.2c1.9-9.6-1.7-3.9-7.3-4.9c0.3-2.3,0.7-4,0.8-5.4  c0-0.1-0.1-0.1-0.1-0.2c0.8-1.5-0.2-2.8-1.8-1c-2.2,2.7-19.2,0.3-13.3-4.9c2.1-0.3,8-6.5,7.3-8c0.1-0.3,0.2-0.6,0.3-0.9  c-0.5-0.4-1.1-0.5-1.7-0.5l-0.4-2c4.2-0.9,9.5-2.8,9.3-3.8c2.3,1.7,5.6,2.7,8.5,2.9c-3.3,2.1-5.4,3.9-6.5,5.5  c-0.2,0-0.3,0.1-0.2,0.3c-4.3,6.6,8.1,8.9,14.4,5.4c-1.3,5.9,9.4,2,6.6-0.3c-2.4,3.9-5.4,3.7-6.1,0c0.1-0.1,0.2-0.1,0.3-0.2  c-0.2-0.2-0.3-0.3-0.4-0.5c0,0,0-0.1,0-0.1c0,0-0.1,0-0.1,0c0,0,0,0,0,0c0,0,0,0.1,0,0.1c-3.6,2.3-8.4,2.8-12.6,0.5  c-3.3-1.5-3.1-3-1.7-4.5c0.9,0.1,2.7,0.9,4,0.3c-0.2-0.7-1-0.6-2.8-0.9c0,0-0.2,0-0.4-0.1c0.6-0.5,1.4-1.1,2.2-1.6  c0,0.1,0.1,0.2,0.2,0.3c2.5,0.7,8.1,0.1,1.1-0.7c-0.1,0-0.3-0.1-0.5-0.1c0.9-0.6,1.7-1.2,2.4-1.7c0,0,0,0,0,0c0.8-0.1,2.8,1,4.3,0.3  c-0.2-0.7-1-0.6-2.8-0.9c-0.1,0-0.4-0.1-0.7-0.1c0.3-0.3,0.5-0.7,0.7-1c0,0,0.1,0,0.2,0c0-0.1,0-0.1-0.1-0.2  c0.1-0.2,0.1-0.3,0.1-0.5c-0.1,0-0.2,0-0.3,0l0,0c0,0,0,0,0,0c-3.8,0.2-8.2-1.6-10.9-4.6c3.4-0.5,8.9-3.2,8.9-6.3  c-0.2,0-0.3-0.1-0.5-0.1c-4.9-1.1-11.4-4-12.1-10c2.9,1,6.3,1.9,9.8,2.4c1.3,2.2,4.3,3.9,1.2,0.2c0.6,0.1,1.3,0.1,1.9,0.2  c0,0,0,0.1,0,0.2c1.5,2.2,5,3.8,1.1-0.1c0.7,0,1.4,0,2.1-0.1c0,0.1,0,0.2,0.1,0.2c0.6,1.2,4,2.5,0.9-0.3c0.3,0,0.6-0.1,0.8-0.2  c-0.2-0.1-0.4-0.2-0.5-0.3c0-0.1,0-0.2,0-0.4c-0.2,0-0.4,0-0.7,0c-7.5-4.4-16.9-11.8-15-21.7c2-1.8,4.5,3.7,6.7,6.6v0  c0.1,0.5,0.2,1,0.3,1.3c-0.5-0.6-0.8,3.2,0.4,1.9c-0.1-0.2-0.1-0.4-0.1-0.6c0.1,0.1,0-0.2,0-0.7c0,0,0,0,0-0.1c0-0.4,0-0.8,0.1-1.1  c0.2,0.3,0.5,0.5,0.7,0.6c0.2,0.2,0.5,0.5,0.8,0.8c-0.2,2.5,0.8,5.7,0.9,0.9c0.5,0.5,1.1,1.1,1.7,1.7c-0.4,1.2,0.6,4.1,0.8,0.8  c1.9,1.8,3.9,3.6,4.7,3.5c4.5,3.7,9.8,6.6,15.4,8.5c-3.2-0.3-6.4-0.5-8.5,0.9c0.9,3.3,4.2,5.4,7.7,6.4c-18.5,6.7,4.6,14.8,6,8.7  c-3.6,2.4-12.3,1.4-12.2-4.3c0.5-0.7,1.2-1.1,2.1-1.6c2.2,1.8,6.6,2.8,0.9-0.4c1-0.4,2-0.8,3-1.2c0,0.1,0,0.1,0,0.2  c0.9,0.9,6.8,2.9,1.5-0.2c-0.1,0-0.4-0.2-0.8-0.4c0.3-0.2,0.6-0.3,0.8-0.5c0.1,0,0.2,0,0.2,0c0-0.1,0-0.1-0.1-0.2  c0.2-0.1,0.3-0.3,0.5-0.4c-2.6-1.2-6.4-1.9-8.3-4.9c-1.8-1.7,0.8-1.8,4.3-1.5c0,0.1,0,0.2,0.1,0.3c0.8,1.1,7.3,5,2.2,0.7  c-0.2-0.1-0.6-0.5-1.1-0.9c0.9,0.1,1.8,0.2,2.8,0.3c0,0,0,0,0,0c0.7,1,6.8,5.2,2.2,0.8c-0.2-0.1-0.5-0.4-0.8-0.7  c0.7,0.1,1.4,0.1,2.1,0.1c0,0.1,0,0.2,0,0.3c1.9,1.8,6.9,3.7,1.3-0.1c0,0-0.1,0-0.1,0c2.6,0.5,5.2,1,7.6,1.8c3.1,1,6,2.6,8.2,5.3  c-0.1,0.1-0.1,0.1-0.2,0.2c0.3,0.4,0.7,0.8,1.6,1.9c0.5-0.6,0.6-0.7,1.6-1.9c0,0-0.1-0.1-0.1-0.1c3.8-4.4,9.5-6.8,15.6-7.1  c-5.4,3.7-0.4,1.8,1.4,0c0-0.1,0-0.2,0.1-0.3c0,0,0,0,0.1,0c0.1,0,0.1,0,0.1,0c0.6,0,1.2-0.1,1.9-0.1c-0.3,0.3-0.7,0.6-0.8,0.7  c-4.6,4.4,1.5,0.2,2.2-0.8c0,0,0,0,0,0c0.9-0.1,1.8-0.2,2.7-0.3c-0.4,0.3-0.9,0.8-1,0.9c-5.1,4.3,1.4,0.4,2.2-0.7c0-0.1,0-0.2,0-0.3  c3.4-0.3,5.9-0.2,4.2,1.5c-1.9,3-5.7,3.7-8.3,4.9c0.1,0.1,0.3,0.3,0.4,0.4c0,0.1,0,0.1-0.1,0.2c0.1,0,0.2,0,0.2,0  c0.3,0.2,0.6,0.4,0.9,0.6c-0.3,0.2-0.7,0.4-0.8,0.4c-5.3,3.1,0.6,1.1,1.5,0.2c0-0.1,0-0.1,0.1-0.2c1,0.5,2,0.8,3,1.3  c-5.6,3.1-1.3,2.2,0.9,0.4c0.8,0.4,1.5,0.9,2,1.5c0.1,5.7-8.6,6.7-12.2,4.3c1.4,6.1,24.5-2,6-8.7c3.5-0.9,6.9-3,7.7-6.4  c-2.2-1.5-5.6-1.2-8.9-0.9c3.6-1.3,7.3-3,10.8-5.1c1.7-1.1,3.4-2.2,5-3.5c0,0,0,0,0,0c0.7,0.3,2.8-1.6,4.9-3.5  c0.2,3.4,1.2,0.5,0.8-0.8c0.6-0.6,1.2-1.2,1.7-1.7c0.1,4.8,1,1.6,0.9-0.9c0.3-0.3,0.6-0.6,0.8-0.8c0.2-0.1,0.4-0.3,0.6-0.6  c0,0.4,0.1,0.9,0.1,1.3c0,0,0,0,0,0c0,0.2,0,0.3,0,0.4c0,0,0,0,0,0c0,0,0,0,0,0c0,0.2,0,0.4-0.1,0.6c1.2,1.3,0.9-2.4,0.4-1.9  c0.1-0.4,0.1-0.8,0.3-1.3v0c2.1-2.9,4.7-8.4,6.7-6.6c1.9,9.9-7.5,17.3-15,21.7c-0.2,0-0.4,0-0.7,0c0,0.1,0,0.3,0.1,0.4  c-0.2,0.1-0.4,0.2-0.6,0.3c0.3,0.1,0.6,0.1,0.8,0.2c-3.1,2.9,0.3,1.5,0.9,0.3c0-0.1,0-0.2,0-0.2c0.7,0.1,1.4,0.1,2.1,0.1  c-3.9,3.9-0.5,2.4,1.1,0.1c0-0.1,0-0.1,0-0.2c0.6,0,1.2-0.1,1.8-0.1c-3,3.7-0.1,2.1,1.2-0.2c3.5-0.5,7-1.5,9.9-2.4  c-0.6,6-7.2,8.9-12.1,10c-0.2,0-0.3,0.1-0.5,0.1c0,3.1,5.4,5.8,8.9,6.3c-2.8,3-7.2,4.8-10.9,4.6c0,0,0,0,0,0l0,0l0,0  c-0.1,0-0.2,0-0.3,0c0,0.2,0,0.3,0.1,0.5c0,0.1-0.1,0.1-0.1,0.2c0.1,0,0.1,0,0.2,0c0.1,0.3,0.4,0.6,0.7,1c-0.4,0.1-0.7,0.2-0.8,0.1  c-1.8,0.3-2.6,0.2-2.8,0.9c1.5,0.7,3.5-0.4,4.3-0.3c0,0,0-0.1,0-0.1c0.7,0.6,1.6,1.2,2.5,1.8c-0.3,0-0.5,0.1-0.6,0.1  c-7,0.8-1.4,1.4,1.1,0.7c0.1-0.1,0.2-0.2,0.3-0.3c0.8,0.5,1.6,1.1,2.2,1.6c-0.2,0.1-0.4,0.1-0.4,0.1c-1.8,0.3-2.6,0.2-2.8,0.9  c1.3,0.6,3.1-0.2,4-0.3c1.4,1.5,1.6,3-1.7,4.5c-4.2,2.3-9,1.8-12.6-0.5c0,0,0,0,0-0.1c0,0,0,0,0,0c0,0-0.1,0-0.1,0c0,0,0,0.1,0,0.1  c-0.1,0.2-0.2,0.3-0.4,0.5c0.1,0.1,0.2,0.1,0.3,0.2c-0.7,3.8-3.7,3.9-6.1,0c-2.7,2.3,7.9,6.2,6.6,0.3c6.2,3.4,18.7,1.1,14.3-5.5  c0-0.2-0.1-0.2-0.2-0.3c-1.1-1.6-3.2-3.4-6.6-5.5c2.9-0.2,6.1-1.1,8.5-2.8c-0.2,1,5.4,3.1,9.7,3.9l-0.4,2c-0.9-0.2-1.7-0.2-2.3,0.4  c0,0.4,0.1,0.7,0.3,1c0,0,0,0,0,0C169.1,148.2,175,154.2,177,154.5z M162.1,152c-2.2,0.9,6.7,4.4,7.7,4c-0.6-0.9-2-1.5-3.5-2  c0.3-0.2,0.6-0.3,0.6-0.3c0.9-1.4-1.2-0.6-1.8-0.2c-0.5-0.2-1-0.4-1.5-0.6c0.7-0.2,1.7-0.6,2.5-1.2c0.5-0.8-0.4-0.6-0.4-0.7  c-1.5,0.7-2.4,1.3-2.7,1.6C162.6,152.5,162.3,152.2,162.1,152z M51.1,156c0.9,0.4,9.8-3.1,7.7-4c-0.2,0.3-0.6,0.5-1,0.7  c-0.3-0.3-1.1-0.8-2.7-1.6c0,0.1-0.9-0.1-0.4,0.7c0.8,0.6,1.8,1,2.5,1.2c-0.5,0.2-1,0.4-1.5,0.6c-0.6-0.4-2.8-1.2-1.9,0.1  c0,0,0.3,0.1,0.7,0.3C53.1,154.5,51.7,155.1,51.1,156z"/><path class="st0" d="M176.9,78.7c0.8,3-0.7,8.9-2.8,14.2l-0.1-0.1c0.2-0.3,0-1-0.2-1.7c0.3-1,0.6-2,0.9-3.1c0.9,0.3,0.7-0.5,0.3-1.3  C175.7,84.1,176.3,81.3,176.9,78.7z"/><path class="st0" d="M175.9,123.1c0.4-0.1,0.7-0.2,1-0.3C176.5,123.4,176.1,123.7,175.9,123.1z"/><path class="st0" d="M176.3,117.6c0.3,0.6-1.1,4.6-2.2,6c-0.3,0.1-0.7,0.1-1,0.2c0,0,0,0,0,0C174.3,122.6,174.6,118.4,176.3,117.6z"/><path class="st0" d="M176.5,143.4c-0.6,0.4-2.4,0.2-4.4-0.2c-4.3-0.9-9.9-2.9-9.7-3.9c0.1-0.1,0.3-0.2,0.4-0.3  c0.5,0.4,1.2,0.8,1.8,1.1c-0.2,0.6,0.5,0.4,0.5,0.4c0.1,0,0.1-0.1,0.2-0.1c0.5,0.2,1.1,0.4,1.7,0.5c0.1,0.5,0.4,0.5,0.9,0.2  c0.6,0.2,1.2,0.3,1.8,0.4c0.1,0.7,0.6,0.6,1.3,0.3C173,142.3,175,142.7,176.5,143.4z"/><path class="st0" d="M175,86.9c0.3,0.8,0.6,1.6-0.3,1.3C174.7,87.7,174.9,87.3,175,86.9z"/><path class="st0" d="M175,86.9c-0.1,0.4-0.2,0.9-0.3,1.3c0,0-0.1,0-0.1-0.1c-0.8-1.1-2-7.8,0.1-2.2C174.6,86.1,174.8,86.4,175,86.9z  "/><path class="st0" d="M173.9,92.9l0.1,0.1c-2.3,5.8-5.4,11.1-7.2,11.5c0.1-0.3,0.1-0.5,0.1-0.8c1.6-1.8,3-3.8,4.1-6  c0,0.1,0,0.2,0.1,0.3c0.6,0.2,0.7-0.6,0.6-1.6c0.6-1.2,1.1-2.4,1.5-3.7c0,0.1,0.1,0.3,0.1,0.4C173.7,93.2,173.9,93.1,173.9,92.9z"/><path class="st0" d="M173.7,91.2c0.2,0.7,0.4,1.3,0.2,1.7c-0.1,0.2-0.3,0.3-0.6,0.2c0-0.1-0.1-0.2-0.1-0.4  C173.4,92.2,173.5,91.7,173.7,91.2z"/><path class="st0" d="M169.6,141.5c0.9,0.2,4.2-4,4.7-2.2c-0.4,0.2-2.2,1.9-3.4,2.6C170.5,141.8,170,141.7,169.6,141.5  C169.6,141.6,169.6,141.5,169.6,141.5z"/><path class="st0" d="M173.7,91.2c-0.2,0.5-0.3,1-0.5,1.5c-0.3-1.2-0.9-2.9-1.4-4.9c0.3-0.4,0.7-1.2,1.2,1.1  C172.9,89.3,173.4,90.3,173.7,91.2z"/><path class="st0" d="M174.1,123.5c-0.4,0.4-0.8,0.6-1,0.2C173.4,123.7,173.7,123.6,174.1,123.5z"/><path class="st0" d="M170.5,123.7c0-0.4,3-7.6,2.1-3c-0.4,0.4-0.8,2.6-1.4,3.2c-0.2,0-0.3,0-0.5,0  C170.6,123.8,170.6,123.8,170.5,123.7z"/><path class="st0" d="M171.9,130.2c0.9,1,1.9,1.9,2.9,2.7c-1.9-0.1-3.6-0.8-4.8-2.1C170.2,130.5,170.8,130.3,171.9,130.2z"/><path class="st0" d="M170.8,109.2c1.3,0.1,2.4,0,3.6-0.3c-1.4,1.2-2.9,1.9-4.4,2.1C169.4,110.7,169.5,110,170.8,109.2z"/><path class="st0" d="M171.8,146.5c0.4,0.8,0.8,1.4,1.4,2c-1.7-0.2-3-0.8-3.5-1.9c0,0,0,0,0,0C169.8,146.2,170.5,146.1,171.8,146.5z"/><path class="st0" d="M171.7,96.4c0.1,1,0,1.8-0.6,1.6c0-0.1,0-0.2-0.1-0.3C171.3,97.3,171.5,96.8,171.7,96.4z"/><path class="st0" d="M171.7,96.4c-0.2,0.4-0.4,0.9-0.7,1.3c-0.4-1.8-0.7-3.5-1.1-5.4c0.2,0.2,0.7,0.1,0.7-0.3  C171.1,93.1,171.6,95,171.7,96.4z"/><path class="st0" d="M171.3,138c0.1,0.3-0.2,0.5-0.5,0.5c0.2-0.2,0.3-0.3,0.4-0.3c-0.2-0.1-0.5-0.3-0.7-0.4  C170.8,137.7,171.1,137.8,171.3,138z"/><path class="st0" d="M170.7,123.9c0.2,0,0.4,0,0.5,0C171.1,124,170.9,124,170.7,123.9z"/><path class="st0" d="M171.2,138.2c-0.1,0-0.2,0.2-0.4,0.3c-0.3,0-0.5-0.2-0.3-0.7c0,0,0,0,0,0C170.7,137.9,171,138.1,171.2,138.2z"/><path class="st0" d="M169.6,141.6c0.4,0.1,0.9,0.2,1.3,0.3C170.2,142.2,169.7,142.3,169.6,141.6z"/><path class="st0" d="M170.5,137.8c-0.2,0.5,0.1,0.7,0.3,0.7c-0.7,0.7-2.1,2.1-3,2.6c-0.3-0.1-0.6-0.1-0.9-0.2c0-0.1,0-0.1,0-0.2  C167.7,140.8,169.3,138.2,170.5,137.8z"/><path class="st0" d="M170.6,91.8c0.1,0.1,0.1,0.2,0,0.3C170.6,92,170.6,91.9,170.6,91.8C170.5,91.8,170.6,91.8,170.6,91.8z"/><path class="st0" d="M170.5,91.8c0,0.1,0.1,0.2,0.1,0.3c0,0.4-0.5,0.4-0.7,0.3c0-0.1-0.1-0.3-0.1-0.4c0,0,0,0,0,0  C170.1,91.9,170.3,91.8,170.5,91.8z"/><path class="st0" d="M170.5,137.8C170.5,137.8,170.5,137.8,170.5,137.8C170.5,137.8,170.5,137.8,170.5,137.8  C170.5,137.8,170.5,137.8,170.5,137.8z"/><path class="st0" d="M170.2,91.4c0.1,0,0.2,0.2,0.3,0.4c-0.3,0-0.4,0.1-0.7,0.1C169.9,91.8,170,91.6,170.2,91.4z"/><path class="st0" d="M169.8,91.9c0,0.1,0.1,0.3,0.1,0.4C169.8,92.3,169.7,92.1,169.8,91.9z"/><path class="st0" d="M169.8,91.9C169.8,91.9,169.8,91.9,169.8,91.9C169.8,91.9,169.8,91.9,169.8,91.9  C169.8,91.9,169.8,91.9,169.8,91.9z"/><path class="st0" d="M169.8,156c-1,0.4-9.9-3.1-7.7-4c0.2,0.2,0.5,0.5,0.9,0.7c-0.4,0.4-0.1,0.5,0.6,0.3c0.5,0.2,0.9,0.4,1.5,0.6  c-0.1,0.1-0.2,0.1-0.2,0.2c-0.1,0.8,0.8,0.6,1.4,0.3C167.8,154.5,169.2,155.1,169.8,156z"/><path class="st0" d="M167.9,94c0.5,0.4,2.7,6.9,1,6.2C169,98.9,166.7,95.5,167.9,94z"/><path class="st0" d="M168.1,120.3c0.1,1.2-0.2,2.4-0.8,3.5c-0.1,0-0.3,0-0.5,0c0.1,0.1,0.2,0.2,0.3,0.3c-2.1,3.5-7.5,6.2-11.5,7.1  c-0.1-0.2-0.2-0.3-0.3-0.5l0-0.1c4.9-1.1,11.4-4,12.1-10c0.2-0.1,0.4-0.1,0.6-0.2L168.1,120.3z"/><path class="st0" d="M168.1,120.3l-0.1,0c-0.2-0.1-0.3-0.3-0.5-0.4c0,0.2,0,0.4-0.1,0.6c-2.9,1-6.4,2-9.9,2.4c0,0,0,0,0,0  c0.3-0.9-0.6-0.6-0.6-0.6c-0.3,0.3-0.5,0.5-0.7,0.8c-0.6,0.1-1.2,0.1-1.8,0.1c0.1-0.7-0.6-0.3-0.6-0.4c-0.2,0.2-0.3,0.3-0.5,0.5  c-0.7,0-1.4,0-2.1-0.1c0-0.5-0.4-0.5-0.5-0.4c0.4-0.2,0.8-0.3,1.1-0.5c5.2,0,11.1-1.1,16-2.9C168,119.6,168.1,120,168.1,120.3z"/><path class="st0" d="M168,120.3c-0.2,0.1-0.4,0.1-0.6,0.2c0-0.2,0-0.4,0.1-0.6C167.7,120,167.8,120.2,168,120.3z"/><path class="st0" d="M166.9,140.9c0.3,0.1,0.6,0.2,0.9,0.2C167.4,141.4,167,141.4,166.9,140.9z"/><path class="st0" d="M164.7,139.8c2.1-2.1,5.1-2.7,0.6,0.6c-0.2-0.1-0.5-0.2-0.7-0.3C164.6,140,164.6,139.9,164.7,139.8z"/><path class="st0" d="M167.4,123.7c0,0.1-0.1,0.1-0.1,0.2c-0.1-0.1-0.2-0.2-0.3-0.3C167.1,123.7,167.2,123.7,167.4,123.7z"/><path class="st0" d="M162.6,100.7c3.6-3.2,4.7-0.5,4.4,3c-0.2,0.3-0.4,0.5-0.7,0.7c0.2,0.1,0.4,0.1,0.6,0.1  c-0.3,2.1-1.1,4.4-2.1,5.7c-2.9,5.5-7.2,9.4-12.9,12c-0.4,0-0.8,0-1.1,0c7.5-4.4,16.9-11.8,15-21.7c-2-1.8-4.5,3.7-6.7,6.6  c0.1-0.3,0.1-0.6,0.2-0.9c-0.2-0.1-0.4-0.2-0.5-0.1C160.1,104.4,161.4,102.6,162.6,100.7z"/><path class="st0" d="M165.1,153.5c0.7-0.4,2.7-1.2,1.8,0.2c0,0-0.3,0.1-0.6,0.3C165.9,153.8,165.5,153.7,165.1,153.5z"/><path class="st0" d="M166.3,104.4c0.2-0.2,0.5-0.5,0.7-0.7c0,0.3-0.1,0.5-0.1,0.8C166.7,104.5,166.5,104.5,166.3,104.4z"/><path class="st0" d="M165.1,153.5c0.4,0.1,0.8,0.3,1.2,0.4c-0.6,0.3-1.4,0.6-1.4-0.3C164.9,153.7,165,153.6,165.1,153.5z"/><path class="st0" d="M165.7,151.1c0,0.1,0.9-0.1,0.4,0.7c-0.8,0.6-1.8,1-2.5,1.2c-0.2-0.1-0.4-0.2-0.6-0.3  C163.3,152.3,164.2,151.8,165.7,151.1z"/><path class="st0" d="M165.3,140.4c-0.1,0-0.1,0.1-0.2,0.1c0,0-0.7,0.2-0.5-0.4C164.8,140.2,165,140.3,165.3,140.4z"/><path class="st0" d="M165,136.3c-0.1,0.2-0.3,0.5-0.4,0.7l0,0c-0.1-0.2-0.2-0.5-0.3-0.7c-0.2,0.2-0.4,0.4-0.5,0.6  c-3.4-0.5-8.9-3.2-8.9-6.3c0.1,0,0.3-0.1,0.5-0.1l0,0.1c0,0.2-0.1,0.4-0.2,0.6c0.2,0,0.3-0.1,0.5-0.1  C157.6,134,161.6,135.6,165,136.3z"/><path class="st0" d="M164.4,162.5c0.3,1.7,0.4,3.7,0.5,4.7c-1.4,2.1-5.2,1.5-7.9,0.8c1.3,4.9,1.3,5.5-4.9,5.6  c-9.1,0.9-18.8-1.2-23.2-9.7c-8,5.4-7.3-3.9-11-9.2l0.1-0.1c0.6,0.7,1,1.4,1.4,2.2c0.4-0.5,0.9-1.3,1.2-2.5c0.2,0.3,0.4,0.7,0.5,1.1  c1.4,3.2,1.8,6.6,4.5,7.8c9-8.6,1.9,12,29.5,7.7c-2.2-9.5,2-4,7.3-4.9c-0.1-1.2-0.6-3.3-0.8-5.4c0.1-0.1,0.2-0.2,0.2-0.3  C162.2,161.1,163,161.9,164.4,162.5z"/><path class="st0" d="M164.6,137L164.6,137c-0.5,0.8-1.1,1.4-1.9,2c0,0,0,0,0,0c-0.2,0.1-0.3,0.2-0.3,0.3c-2.3,1.7-5.6,2.6-8.5,2.8  c-0.3-0.2-0.7-0.4-1.1-0.6c3.8,0.2,8.2-1.6,10.9-4.6C164.1,136.9,164.3,137,164.6,137z"/><path class="st0" d="M164.3,136.3c0.1,0.2,0.2,0.5,0.3,0.7c-0.3,0-0.5-0.1-0.8-0.1C163.9,136.7,164.1,136.5,164.3,136.3z"/><path class="st0" d="M163,159.5c0.8,0,1.2,1.3,1.4,3c-1.4-0.6-2.2-1.4-2.6-2.2C162.3,159.8,162.7,159.5,163,159.5z"/><path class="st0" d="M163.6,153c-0.7,0.2-1.1,0.1-0.6-0.3C163.2,152.8,163.4,152.9,163.6,153z"/><path class="st0" d="M162.7,139c-0.1,0.1-0.2,0.2-0.4,0.3C162.4,139.2,162.5,139.1,162.7,139C162.7,139,162.7,139,162.7,139z"/><path class="st0" d="M160.7,147.9c4.4,6.6-8.1,8.9-14.3,5.5c-0.1-0.3-0.2-0.7-0.3-1c3.6,2.3,8.4,2.8,12.6,0.5c3.3-1.5,3.1-3,1.7-4.5  c0.1,0,0.2,0,0.2,0C160.6,148.2,160.7,148,160.7,147.9z"/><path class="st0" d="M160.5,147.6c0.1,0,0.2,0.1,0.2,0.3C160.6,147.8,160.6,147.7,160.5,147.6z"/><path class="st0" d="M160.5,147.6c0.1,0.1,0.1,0.2,0.2,0.3c0,0.1-0.1,0.3-0.2,0.5c-0.1,0-0.1,0-0.2,0c-0.2-0.2-0.5-0.4-0.7-0.7  C159.8,147.6,160.2,147.6,160.5,147.6z"/><path class="st0" d="M160.5,147.6c-0.2-0.1-0.6,0-1,0.1c-0.6-0.5-1.4-1.1-2.2-1.6c0.4-0.5-0.2-0.5-0.8-0.5c-0.9-0.6-1.8-1.2-2.5-1.8  c0.5-0.8-0.1-0.8-0.7-0.7c-0.3-0.3-0.5-0.7-0.7-1c0.4,0,0.8,0,1.3,0C157.3,144.2,159.3,146,160.5,147.6z"/><path class="st0" d="M159.5,147.7c0.3,0.2,0.5,0.4,0.7,0.7c-0.9,0.1-2.7,0.9-4,0.3c0.2-0.7,1-0.6,2.8-0.9  C159.1,147.8,159.3,147.8,159.5,147.7z"/><path class="st0" d="M158.9,108.4c0.6-0.5,0.8,3.2-0.4,1.9c0-0.2,0.1-0.4,0.1-0.6C158.6,109.7,158.7,109.3,158.9,108.4  C158.9,108.4,158.9,108.4,158.9,108.4z"/><path class="st0" d="M159.3,106.2c-0.1,0.3-0.1,0.6-0.2,0.9v0c-0.2,0.3-0.4,0.6-0.6,0.8c0-0.6-0.1-1.2,0-1.5  c0.1-0.1,0.2-0.2,0.3-0.3C158.9,106,159.1,106.1,159.3,106.2z"/><path class="st0" d="M159.1,107.1c-0.1,0.5-0.2,1-0.3,1.3c0,0,0,0,0,0c-0.1,0.1-0.2,0.3-0.3,0.6c0,0.1,0,0.1,0,0.2  c0-0.4,0-0.9-0.1-1.3C158.7,107.6,158.9,107.4,159.1,107.1z"/><path class="st0" d="M158.8,106.1c-0.1,0.1-0.2,0.2-0.3,0.3C158.6,106.2,158.7,106.1,158.8,106.1z"/><path class="st0" d="M158.9,108.4c-0.2,0.9-0.3,1.2-0.3,1.2c0,0,0,0,0,0c0,0,0,0,0,0c0-0.1,0-0.3,0-0.4c0,0,0,0,0,0  c0-0.1,0-0.1,0-0.2C158.7,108.7,158.8,108.5,158.9,108.4z"/><path class="st0" d="M158.6,109.2c0,0.1,0,0.3,0,0.4C158.6,109.5,158.6,109.4,158.6,109.2z"/><path class="st0" d="M158.5,106.4c-0.1,0.3-0.1,0.9,0,1.5c-0.2,0.2-0.4,0.4-0.6,0.6c-0.2,0.2-0.5,0.5-0.8,0.8c0-0.3,0-0.6-0.1-0.8  c0,0-0.1-0.1-0.1-0.1c0,0,0,0,0,0C157.5,107.7,158,107,158.5,106.4z"/><path class="st0" d="M157,122.3c0,0,0.9-0.3,0.6,0.6c0,0,0,0,0,0c-0.4,0.1-0.8,0.1-1.2,0.2C156.5,122.8,156.7,122.6,157,122.3z"/><path class="st0" d="M156.5,145.6c0.5,0,1.1,0,0.8,0.5C157,145.9,156.8,145.8,156.5,145.6z"/><path class="st0" d="M156.5,145.6c0.3,0.2,0.5,0.3,0.8,0.5c-0.1,0.1-0.2,0.2-0.3,0.3c-2.5,0.7-8.1,0.1-1.1-0.7  C156,145.7,156.3,145.6,156.5,145.6z"/><path class="st0" d="M157.1,109.2c0.1,2.6-0.8,5.7-0.9,0.9C156.5,109.8,156.8,109.5,157.1,109.2z"/><path class="st0" d="M157,108.4c0.1,0.3,0.1,0.5,0.1,0.8c-0.3,0.3-0.6,0.6-0.9,0.9c0-0.3,0-0.7,0-1.1  C156.4,108.8,156.7,108.6,157,108.4C156.9,108.3,157,108.4,157,108.4z"/><path class="st0" d="M156.3,123.1c0.4,0,0.8-0.1,1.2-0.2C156.3,125.2,153.3,126.8,156.3,123.1z"/><path class="st0" d="M156.9,108.3C156.9,108.3,156.9,108.3,156.9,108.3c-0.2,0.3-0.5,0.5-0.7,0.8c0,0,0-0.1,0-0.1  c0.2-0.2,0.4-0.5,0.6-0.7C156.8,108.2,156.9,108.2,156.9,108.3z"/><path class="st0" d="M156.8,108.2c-0.2,0.2-0.4,0.5-0.6,0.7c0-0.2,0-0.3,0-0.5C156.2,108.1,156.5,108,156.8,108.2z"/><path class="st0" d="M156.2,109.1c0,0.4,0,0.7,0,1.1c-0.5,0.5-1.1,1.1-1.7,1.7c0,0,0,0,0,0c-0.2-0.3-0.4-0.4-0.5-0.4v0  c0.2-0.3,0.4-0.4,0.6-0.7c0.1-0.1,0.3-0.3,0.5-0.5c0,0,0,0,0,0C155.5,109.8,155.8,109.4,156.2,109.1z"/><path class="st0" d="M155.7,131.1c-0.2,0-0.3,0.1-0.5,0.1c0.1-0.2,0.2-0.4,0.2-0.6C155.5,130.8,155.6,130.9,155.7,131.1z"/><path class="st0" d="M148.6,115.7c2.3-1.7,4.5-3.5,6.5-5.5c-0.2,0.2-0.3,0.4-0.5,0.5c-0.3,0.3-0.4,0.4-0.6,0.7v0h0  c-0.1,0-0.3,0.2-0.3,0.3c0,0-0.1,0.1-0.1,0.1c-1.5,1.6-3.1,3-4.7,4.3c0,0,0,0,0,0C148.7,116.1,148.6,115.9,148.6,115.7z"/><path class="st0" d="M154.5,111.8c0.4,1.2-0.6,4.1-0.8,0.8C154,112.3,154.3,112.1,154.5,111.8z"/><path class="st0" d="M153.9,122.8c0,0.1,0.8-0.3,0.6,0.4c-0.4,0-0.7,0-1.1,0C153.6,123.1,153.7,123,153.9,122.8z"/><path class="st0" d="M153.4,123.3c0.4,0,0.7,0,1.1,0c0,0,0,0.1,0,0.2C153,125.6,149.5,127.2,153.4,123.3z"/><path class="st0" d="M154.5,111.8C154.5,111.8,154.5,111.8,154.5,111.8c-0.2,0.3-0.5,0.5-0.8,0.8c0-0.2,0-0.5,0-0.8c0,0,0,0,0-0.1  c0.1-0.1,0.2-0.2,0.3-0.3h0C154.1,111.4,154.3,111.5,154.5,111.8z"/><path class="st0" d="M153.3,143.2c0.6-0.1,1.2-0.2,0.7,0.7C153.8,143.6,153.5,143.4,153.3,143.2z"/><path class="st0" d="M154,143.8C154,143.8,154,143.9,154,143.8c-0.8,0-2.8,1.1-4.3,0.4c0.2-0.7,1-0.6,2.8-0.9c0.1,0,0.5-0.1,0.8-0.1  C153.5,143.4,153.8,143.6,154,143.8z"/><path class="st0" d="M154,111.4c-0.1,0.1-0.2,0.2-0.3,0.3C153.7,111.6,153.8,111.4,154,111.4z"/><path class="st0" d="M153.7,111.8c0,0.3,0,0.6,0,0.8c-2,2-4.1,3.8-4.9,3.5C150.5,114.8,152.1,113.4,153.7,111.8  C153.6,111.8,153.7,111.7,153.7,111.8C153.7,111.8,153.7,111.8,153.7,111.8z"/><path class="st0" d="M153.9,142.2c-0.4,0-0.8,0.1-1.3,0c0-0.1-0.1-0.1-0.1-0.2c0.1-0.2,0.1-0.4,0.2-0.5c0,0,0,0,0,0c0,0,0,0,0,0  C153.2,141.7,153.6,141.9,153.9,142.2z"/><path class="st0" d="M152.8,141.5C152.8,141.5,152.8,141.5,152.8,141.5L152.8,141.5L152.8,141.5z"/><path class="st0" d="M152.5,141.5c0.1,0,0.2,0,0.3,0c-0.1,0.1-0.1,0.3-0.2,0.5C152.5,141.8,152.5,141.7,152.5,141.5z"/><path class="st0" d="M152.7,142.2c-0.1,0-0.1,0-0.2,0c0-0.1,0.1-0.1,0.1-0.2C152.6,142.1,152.6,142.1,152.7,142.2z"/><path class="st0" d="M151.9,122.2c-0.4,0.2-0.7,0.3-1.1,0.5c-0.1,0-0.1,0-0.1,0c-0.2,0.1-0.3,0.1-0.5,0.2c0-0.2,0-0.3,0-0.4  c0.2-0.1,0.4-0.2,0.6-0.4C151.1,122.2,151.5,122.2,151.9,122.2z"/><path class="st0" d="M150.8,122.7c0.2-0.1,0.6-0.1,0.5,0.4c-0.3,0-0.6-0.1-0.9-0.1C150.5,123,150.6,122.9,150.8,122.7L150.8,122.7  C150.7,122.8,150.7,122.8,150.8,122.7z"/><path class="st0" d="M151.3,123.2c0,0.1,0,0.2,0,0.2c-0.6,1.2-4,2.5-0.9-0.3C150.7,123.1,151,123.1,151.3,123.2z"/><path class="st0" d="M150.8,122.2c-0.2,0.1-0.4,0.2-0.6,0.4c0-0.1-0.1-0.2-0.1-0.4C150.3,122.2,150.5,122.2,150.8,122.2z"/><path class="st0" d="M150.7,122.8L150.7,122.8c-0.1,0.1-0.2,0.2-0.3,0.3c-0.3,0-0.6-0.1-0.8-0.2c0.2-0.1,0.4-0.2,0.6-0.3  c0,0.1,0,0.3,0,0.4C150.4,122.9,150.5,122.9,150.7,122.8z"/><path class="st0" d="M146.3,153.4c1.3,5.9-9.4,2-6.6-0.3c2.4,3.9,5.4,3.7,6.1,0C146,153.2,146.1,153.3,146.3,153.4z"/><path class="st0" d="M146,152.4c0.1,0.4,0.2,0.7,0.3,1c-0.2-0.1-0.4-0.2-0.6-0.3c0-0.2,0.1-0.4,0.1-0.7  C145.9,152.4,145.9,152.4,146,152.4C146,152.4,146,152.4,146,152.4z"/><path class="st0" d="M146,152.3C146,152.3,146,152.4,146,152.3C146,152.4,146,152.4,146,152.3C146,152.3,146,152.3,146,152.3z"/><path class="st0" d="M145.9,152.3C145.9,152.3,145.9,152.3,145.9,152.3c0,0.1,0,0.1,0,0.1C145.9,152.4,145.9,152.3,145.9,152.3z"/><path class="st0" d="M145.9,152.4c0,0.2-0.1,0.4-0.1,0.7c-0.1-0.1-0.2-0.1-0.3-0.2C145.7,152.7,145.7,152.6,145.9,152.4z"/><path class="st0" d="M140.6,126.8c1.8-1.7-0.8-1.8-4.2-1.5c0-0.7-0.6-0.4-1.2,0.1c-0.9,0.1-1.8,0.2-2.7,0.3c0-0.4-0.1-0.6-0.3-0.6  c0.1-0.1,0.3-0.1,0.7-0.3c0.1,0,0.1,0,0.2-0.1c3.4-0.4,6.7-0.6,8.9,0.9c-0.9,3.3-4.2,5.4-7.7,6.4c-0.4-0.1-0.9-0.3-1.4-0.5  c-0.1,0.2-0.1,0.4-0.2,0.6c-0.2-0.1-0.3-0.3-0.4-0.4C134.9,130.5,138.7,129.8,140.6,126.8z"/><path class="st0" d="M128.3,140.7c3.6,2.4,12.3,1.4,12.2-4.3c-0.5-0.6-1.2-1.1-2-1.5c0,0,0.1,0,0.1-0.1c0.1-0.7-0.1-0.7-0.4-0.7  c-0.2,0.1-0.4,0.2-0.6,0.4c-1-0.4-2.1-0.8-3-1.3c0.2-0.7-0.3-0.6-0.8-0.4c-0.3-0.2-0.6-0.4-0.9-0.6c0.4-0.1,0.9-0.2,1.3-0.3  C152.8,138.7,129.7,146.8,128.3,140.7z"/><path class="st0" d="M138.2,134.1c0.3,0,0.5,0,0.4,0.7c0,0-0.1,0.1-0.1,0.1c-0.3-0.2-0.6-0.3-0.9-0.4  C137.8,134.3,138,134.2,138.2,134.1z"/><path class="st0" d="M137.6,134.4c0.3,0.1,0.6,0.3,0.9,0.4C136.2,136.7,132,137.6,137.6,134.4z"/><path class="st0" d="M135.2,125.4c0.4,0,0.8-0.1,1.2-0.1c0,0.1,0,0.2,0,0.3c-0.8,1.1-7.3,5-2.2,0.7  C134.4,126.2,134.8,125.7,135.2,125.4z"/><path class="st0" d="M136.4,125.3c-0.4,0-0.8,0.1-1.2,0.1C135.8,124.9,136.4,124.6,136.4,125.3z"/><path class="st0" d="M133.8,132.8c0.5-0.2,0.9-0.4,0.8,0.4C134.3,133.1,134,132.9,133.8,132.8z"/><path class="st0" d="M134.5,133.2c0,0.1,0,0.1-0.1,0.2c-0.9,0.9-6.8,2.9-1.5-0.2c0.1,0,0.5-0.2,0.8-0.4  C134,132.9,134.3,133.1,134.5,133.2z"/><path class="st0" d="M132.9,131.5c0.5,0.1,0.9,0.3,1.4,0.5c-0.4,0.1-0.9,0.2-1.3,0.3c-0.1,0-0.1-0.1-0.2-0.1  C132.8,131.9,132.8,131.7,132.9,131.5z"/><path class="st0" d="M133.1,124.7c-0.1,0-0.1,0-0.2,0.1c-0.3,0.2-0.6,0.2-0.7,0.3c0,0,0,0,0,0c-0.1,0-0.1,0-0.2,0.1c0,0,0,0,0,0  c-0.1,0-0.1,0-0.2,0.1c-0.9,0.3-1.8,0.6-2.6,0.7c-0.1,0-0.1,0-0.2,0c0-0.6-0.6-0.3-1,0c-1.6,0-2.5-0.2-1.9-0.9  C128.1,125.4,130.6,125,133.1,124.7z"/><path class="st0" d="M132.9,132.2c-0.1,0-0.2,0-0.2,0c0-0.1,0-0.1,0.1-0.2C132.8,132.2,132.9,132.2,132.9,132.2z"/><path class="st0" d="M132.5,125.7C132.5,125.7,132.5,125.7,132.5,125.7c-0.7,1-6.8,5.2-2.2,0.8c0.2-0.1,0.5-0.4,0.8-0.7  C131.6,125.7,132,125.7,132.5,125.7z"/><path class="st0" d="M132.5,125.7c-0.5,0-0.9,0.1-1.4,0.1c0.3-0.3,0.6-0.5,0.8-0.7c0,0,0,0,0,0c0,0,0.1,0,0.1,0c0,0,0.1,0,0.1,0  c0,0,0,0,0,0C132.4,125.1,132.5,125.3,132.5,125.7z"/><path class="st0" d="M132.2,125.1C132.1,125.1,132.1,125.1,132.2,125.1c-0.1,0-0.2,0.1-0.2,0.1C132,125.1,132.1,125.1,132.2,125.1z"/><path class="st0" d="M131.8,125.2c0.1,0,0.1,0,0.2-0.1c-0.3,0.1-0.6,0.4-0.8,0.7c-0.7,0-1.3,0.1-1.9,0.1  C130,125.8,130.9,125.5,131.8,125.2z"/><path class="st0" d="M129.2,125.9c-0.1,0-0.1,0-0.1,0c0,0,0,0-0.1,0c0,0,0,0,0,0C129.1,125.9,129.2,125.9,129.2,125.9z"/><path class="st0" d="M129,125.9C129,126,129,126,129,125.9c-0.7,0.2-1.3,0.3-1.4,0.3c0,0,0,0-0.1,0c0.1,0,0.1-0.1,0.2-0.1  c0.1,0,0.2-0.1,0.3-0.2C128.3,126,128.7,126,129,125.9z"/><path class="st0" d="M128,126c0.4-0.3,1-0.7,1,0C128.7,126,128.3,126,128,126z"/><path class="st0" d="M129,126c0,0.1,0,0.2-0.1,0.3c-1.9,1.8-6.8,3.7-1.4,0c0,0,0,0,0.1,0C127.8,126.2,128.3,126.1,129,126z"/><path class="st0" d="M126.1,125.1c-0.6,0.7,0.3,0.9,1.9,0.9c-0.1,0.1-0.3,0.2-0.3,0.2c-0.1,0-0.1,0.1-0.2,0.1  c-6.2,0.3-11.8,2.7-15.6,7.1c-0.5-0.6-0.9-1.2-1.5-1.9c0,0,0,0,0,0c4.7-5.5,9.6-6.3,15.5-7.4L126.1,125.1z"/><path class="st0" d="M120.7,154.1c0,0.1,0,0.2-0.1,0.2c-0.3-0.6-0.7-1.2-1.2-1.8c0.3,0.3,0.7,0.7,1,1.1  C120.5,153.9,120.6,154,120.7,154.1z"/><path class="st0" d="M119.4,152.6c0.5,0.5,0.9,1.1,1.2,1.8c-0.3,1.2-0.9,2-1.2,2.5c-0.4-0.8-0.8-1.5-1.4-2.2  c0.6-1.3,0.5-2.1,0.6-2.8C118.9,152,119.2,152.3,119.4,152.6C119.4,152.6,119.4,152.6,119.4,152.6z"/><path class="st0" d="M119.4,152.6c-0.3-0.3-0.5-0.5-0.8-0.8c-0.1,0.7,0,1.5-0.6,2.8l-0.1,0.1c-1.1-1.6-2.6-2.7-4.8-3.1  c-0.1-0.1-0.3-0.1-0.4-0.1c0.2,0,0.3,0.1,0.5,0.1c0-0.1,0.1-0.3,0.1-0.4c0.1-0.3,0.1-0.5-0.1-0.8c-0.2-0.8-1.5-1.3-2.3-1.5  C115.3,149.2,117.8,150.7,119.4,152.6z"/><path class="st0" d="M113.2,150.4c0.1,0.2,0.2,0.5,0.1,0.8c0,0.1-0.1,0.3-0.1,0.4c-0.2-0.1-0.3-0.1-0.5-0.1  c-0.2-0.1-0.4-0.1-0.6-0.1c-0.7-0.1-1-0.1-1.3-0.1c0,0,0-0.1,0-0.1c0.7,0,1.3,0.1,2.1,0.4c0.3-0.3,0.4-0.6,0.4-0.9  C113.3,150.6,113.3,150.5,113.2,150.4z"/><path class="st0" d="M113.2,150.4c0,0.1,0,0.1,0,0.2c0,0.3-0.1,0.5-0.4,0.9c-0.8-0.3-1.4-0.4-2.1-0.4c0.1-0.2,0.1-0.4,0.2-0.6  C111.5,149.3,112.9,149.6,113.2,150.4z"/><path class="st0" d="M110.9,148.9c0.8,0.2,2.1,0.7,2.3,1.5c-0.4-0.8-1.7-1.2-2.2,0.1c-0.1,0.2-0.1,0.4-0.2,0.6c0,0-0.1,0-0.1,0H110  v0c-0.1-1.5-1.4-1.7-2.1-1.1c0.6-0.5,1.5-0.9,2.5-1.1C110.6,148.9,110.7,148.9,110.9,148.9z"/><path class="st0" d="M111.9,133.4c0,0,0.1,0.1,0.1,0.1c-1,1.2-1.1,1.3-1.6,1.9C110.9,134.7,111.4,134,111.9,133.4z"/><path class="st0" d="M110.8,151.2c0.3,0,0.7,0,1.3,0.1C111.8,151.3,111.4,151.2,110.8,151.2H110c0,0,0,0,0-0.1s0,0,0,0v0h0.7  C110.7,151.1,110.8,151.1,110.8,151.2C110.8,151.1,110.8,151.2,110.8,151.2z"/><path class="st0" d="M111.9,133.4c-0.5,0.6-1,1.3-1.5,2c-0.4-0.8-0.9-1.5-1.4-2.1c0.5-0.7,0.9-1.3,1.4-1.8c0,0,0,0,0,0  C111,132.2,111.4,132.7,111.9,133.4z"/><path class="st0" d="M110.9,148.9c-0.2,0-0.3,0-0.5,0c-1,0.2-1.9,0.6-2.5,1.1c-0.1,0.1-0.1,0.1-0.2,0.2c-0.2,0.2-0.3,0.4-0.3,0.7  c0,0.1,0,0.2,0.1,0.3c0,0,0,0,0,0c0,0.1,0.1,0.3,0.1,0.4c-2.1,0.2-3.5,1.4-4.6,3.1l-0.2-0.1c-0.2-0.4-0.3-0.9-0.4-1.4  c-0.1-0.4-0.1-0.9-0.1-1.5c-0.2,0.1-0.3,0.3-0.4,0.4c1.8-1.9,4.4-3.3,8.4-3.3C110.4,148.8,110.6,148.9,110.9,148.9z"/><path class="st0" d="M110,151.1C110,151.2,110,151.2,110,151.1c-0.6,0-1.2,0.1-1.8,0.3c0,0,0,0,0,0c-0.1,0-0.3,0.1-0.5,0.1  c-0.1-0.1-0.2-0.2-0.3-0.4c0,0,0,0,0,0c0,0,0,0,0-0.1c0-0.4,0-0.7,0.2-0.9c0.1-0.1,0.1-0.1,0.2-0.2  C108.6,149.4,109.9,149.6,110,151.1C110,151.1,110,151.1,110,151.1z"/><path class="st0" d="M108.2,151.4c0.6-0.2,1.2-0.3,1.8-0.2C109.7,151.2,109.2,151.2,108.2,151.4z"/><path class="st0" d="M108.9,133.3c0.5,0.6,1,1.3,1.4,2.1c-0.9-1.1-1.3-1.5-1.6-1.9C108.8,133.4,108.9,133.4,108.9,133.3z"/><path class="st0" d="M110.4,131.5c-0.5,0.6-0.9,1.2-1.4,1.8c-2.2-2.7-5.1-4.3-8.2-5.3c-2.5-0.8-5.1-1.3-7.6-1.8  c-0.1,0-0.2-0.1-0.3-0.2c1.5,0,2.4-0.2,1.9-0.9l0.3-1.2c1.8,0.4,3.7,0.8,5.6,1.1C105,125.9,107.9,128.6,110.4,131.5z"/><path class="st0" d="M108.2,151.4c-0.1,0.1-0.3,0.1-0.4,0.2c0,0,0,0,0,0C107.9,151.5,108.1,151.5,108.2,151.4z"/><path class="st0" d="M107.8,151.6c0,0-0.1,0-0.2,0c0-0.1-0.1-0.3-0.1-0.4C107.6,151.4,107.7,151.5,107.8,151.6z"/><path class="st0" d="M107.7,150.2c-0.2,0.2-0.3,0.5-0.2,0.9c0,0.1,0,0.1,0,0.1c0-0.1-0.1-0.2-0.1-0.3  C107.4,150.6,107.5,150.4,107.7,150.2z"/><path class="st0" d="M102.8,154.6l0.2,0.1c-3.5,5.3-4.2,14.8-11.2,9.2c-3.7,11.1-33.9,14.4-28.1,4.1c-1.7,0.4-7.3,1.8-7.9-1.5  c0.2-0.6,0.3-2.4,0.6-4c1.4-0.5,2.2-1.3,2.6-2.1c0,0.1,0.1,0.1,0.1,0.2c-0.1,1.4-0.5,3.1-0.8,5.4c5.6,1,9.2-4.7,7.3,4.9  c27,2.9,21.8-12,26.6-10.2c5.2,6.2,4.7-0.8,8-6.4c0.3,1.2,0.9,2,1.2,2.5C101.8,156,102.2,155.3,102.8,154.6z"/><path class="st0" d="M102.4,153.2c0.1,0.5,0.2,1,0.4,1.4c-0.6,0.7-1,1.4-1.4,2.2c-0.4-0.5-0.9-1.3-1.2-2.5c0.4-0.8,1-1.5,1.6-2.2  c0,0,0.1-0.1,0.1-0.1c0.1-0.1,0.3-0.2,0.4-0.4C102.3,152.3,102.3,152.8,102.4,153.2z"/><path class="st0" d="M101.8,152.2c-0.6,0.7-1.2,1.4-1.6,2.2c0-0.1-0.1-0.2-0.1-0.2C100.5,153.5,100.9,152.9,101.8,152.2z"/><path class="st0" d="M93.2,126.2c5.6,3.8,0.6,1.9-1.3,0.1c0-0.1,0-0.3,0-0.3c0.1,0,0.2,0,0.3,0C92.5,126,92.8,126.1,93.2,126.2  C93.1,126.2,93.2,126.2,93.2,126.2z"/><path class="st0" d="M95,123.9l-0.3,1.2c-2.1,0.3-4.8-0.1-7.4-0.4c-5.6-1.9-10.9-4.9-15.4-8.5c0.2,0,0.4-0.2,0.4-0.5  c-2.8-2-5.3-4.1-7.6-6.6c0-0.2,0-0.4,0-0.7c-0.1-0.3-0.4-0.5-0.7-0.1c-0.3-0.4-0.7-0.8-1-1.1c0,0-0.1-0.1-0.1-0.2  c-0.2-0.3-0.4-0.5-0.6-0.8c0,0,0,0-0.1-0.1c-9.3-12.6-10.3-32.6-23.8-40.6h-0.1c-5.4,15.3,0.9,33.7,12.6,44c0.1,0.1,0.1,0.1,0.1,0.1  c0.2,0.4,0.2,0.7,0.2,0.9c0,0.2-0.1,0.4-0.1,0.5c0,0-0.1,0-0.1,0c0.4-0.4,0.2-1-1-1.8c-1.2,0.1-2.3,0-3.4-0.2  c-5-4.5-10.2-15.8-11.5-23.6C33.3,78.6,31.9,54.8,44,66C60.2,83.4,54.4,114.7,95,123.9z M38.3,65.4C38.2,65.2,38.3,65.5,38.3,65.4  L38.3,65.4z"/><path class="st0" d="M94.7,125.1c0.5,0.7-0.3,0.9-1.9,0.9c-0.5-0.3-1-0.7-1-0.1c-0.9-0.2-1.7-0.3-2.6-0.6c-0.3-0.2-0.6-0.4-0.7-0.2  c-0.2-0.1-0.3-0.1-0.3-0.1c-0.1,0-0.2-0.1-0.3-0.1c-0.2-0.1-0.4-0.1-0.6-0.2C89.9,125,92.6,125.4,94.7,125.1z"/><path class="st0" d="M93.1,126.2c-0.3-0.1-0.7-0.1-1-0.2c0.2,0,0.5,0,0.7,0C92.9,126.1,93,126.1,93.1,126.2z"/><path class="st0" d="M92.8,126c-0.2,0-0.4,0-0.7,0c-0.1,0-0.2,0-0.3-0.1C91.8,125.3,92.4,125.7,92.8,126z"/><path class="st0" d="M90.6,126.5c4.6,4.4-1.5,0.2-2.2-0.8c0,0,0,0,0,0c0.5,0.1,0.9,0.1,1.4,0.1C90.1,126.1,90.4,126.4,90.6,126.5z"/><path class="st0" d="M92.1,126c-0.1,0-0.2,0-0.3,0c0,0,0,0,0,0C91.9,125.9,92,125.9,92.1,126z"/><path class="st0" d="M91.8,125.9C91.8,125.9,91.8,125.9,91.8,125.9c-0.6,0-1.3,0-2.1-0.1c-0.2-0.2-0.3-0.3-0.5-0.5  C90.1,125.6,91,125.7,91.8,125.9z"/><path class="st0" d="M87.8,133.2c5.3,3.1-0.6,1.1-1.5,0.2c0-0.1,0-0.1,0-0.2c0.3-0.1,0.5-0.3,0.8-0.4  C87.3,133,87.7,133.2,87.8,133.2z"/><path class="st0" d="M89.3,125.4c0.2,0.1,0.3,0.3,0.5,0.5c-0.4-0.1-0.9-0.1-1.4-0.1c0-0.3,0.1-0.4,0.1-0.5c0.1,0,0.3,0.1,0.5,0.2  C89.1,125.3,89.2,125.3,89.3,125.4z"/><path class="st0" d="M89.3,125.4c-0.1,0-0.2,0-0.3-0.1c-0.2-0.1-0.3-0.1-0.5-0.2C88.7,125,89,125.1,89.3,125.4z"/><path class="st0" d="M92.5,140.7c-1.4,6.1-24.5-2-6-8.7c0.4,0.1,0.9,0.2,1.3,0.3c-0.3,0.2-0.5,0.4-0.8,0.5c-0.4-0.2-0.9-0.3-0.8,0.4  c-0.9,0.5-2,0.8-3,1.2c-0.2-0.1-0.4-0.2-0.6-0.3c-0.3,0-0.6,0-0.4,0.7c0,0,0,0,0.1,0.1c-0.9,0.4-1.6,0.9-2.1,1.6  C80.2,142.1,88.9,143.1,92.5,140.7z"/><path class="st0" d="M86.7,126.3c5.1,4.3-1.4,0.4-2.2-0.7c0-0.1,0-0.2-0.1-0.3c0.4,0,0.8,0.1,1.2,0.1  C86.1,125.8,86.5,126.2,86.7,126.3z"/><path class="st0" d="M88.5,125.1c-0.1,0.1-0.1,0.3-0.1,0.5c-0.9-0.1-1.8-0.2-2.8-0.3c-0.6-0.5-1.2-0.8-1.2-0.1  c-3.5-0.3-6-0.2-4.3,1.5c1.9,3,5.7,3.7,8.3,4.9c-0.1,0.1-0.3,0.3-0.5,0.4c-0.1-0.2-0.1-0.4-0.2-0.6c-0.5,0.1-0.9,0.3-1.4,0.5  c-3.5-0.9-6.9-3-7.7-6.4c2.1-1.4,5.3-1.3,8.5-0.9c0.2,0.1,0.4,0.1,0.6,0.2c0.1,0.1,0.2,0.1,0.3,0.1C88.3,125,88.4,125.1,88.5,125.1z  "/><path class="st0" d="M88,132.1c0,0.1,0,0.1,0.1,0.2c-0.1,0-0.2,0-0.2,0C87.9,132.2,88,132.2,88,132.1z"/><path class="st0" d="M88,132.1c-0.1,0.1-0.1,0.1-0.2,0.1c-0.4-0.1-0.9-0.2-1.3-0.3c0.4-0.1,0.9-0.3,1.4-0.5  C88,131.7,88,131.9,88,132.1z"/><path class="st0" d="M87,132.8c-0.2,0.1-0.5,0.3-0.8,0.4C86.1,132.5,86.6,132.6,87,132.8z"/><path class="st0" d="M83.3,134.4c5.7,3.2,1.3,2.2-0.9,0.4C82.7,134.7,83,134.6,83.3,134.4z"/><path class="st0" d="M85.6,125.4c-0.4,0-0.8-0.1-1.2-0.1C84.4,124.6,85,124.9,85.6,125.4z"/><path class="st0" d="M83.3,134.4c-0.3,0.1-0.6,0.3-0.9,0.4c0,0,0,0-0.1-0.1c-0.2-0.7,0.1-0.7,0.4-0.7  C82.9,134.2,83.1,134.3,83.3,134.4z"/><path class="st0" d="M81.2,153.1c2.7,2.3-7.9,6.2-6.6,0.3c0.2-0.1,0.4-0.2,0.6-0.3C75.8,156.8,78.8,157,81.2,153.1z"/><path class="st0" d="M75.4,152.9c-0.1,0.1-0.2,0.1-0.3,0.2c0-0.2-0.1-0.4-0.1-0.7C75.1,152.6,75.2,152.7,75.4,152.9z"/><path class="st0" d="M75,152.4c0,0.2,0.1,0.4,0.1,0.7c-0.2,0.1-0.4,0.2-0.6,0.3c0.1-0.3,0.2-0.7,0.3-1  C74.9,152.4,74.9,152.4,75,152.4C75,152.4,75,152.4,75,152.4z"/><path class="st0" d="M75,152.3c0,0,0,0.1,0,0.1C75,152.4,75,152.4,75,152.3C74.9,152.3,75,152.3,75,152.3z"/><path class="st0" d="M74.9,152.3C74.9,152.4,74.9,152.4,74.9,152.3C74.9,152.4,74.9,152.3,74.9,152.3  C74.9,152.3,74.9,152.3,74.9,152.3z"/><path class="st0" d="M74.9,152.4c-0.1,0.4-0.2,0.7-0.3,1c-6.2,3.4-18.7,1.2-14.4-5.4c0,0.1,0.1,0.3,0.2,0.4c0.1,0,0.1,0,0.2,0  c-1.4,1.5-1.6,3,1.7,4.5C66.4,155.2,71.3,154.7,74.9,152.4z"/><path class="st0" d="M72.3,115.7c0,0.3-0.2,0.5-0.4,0.5c-1.7-1.3-3.3-2.8-4.7-4.3c0,0,0-0.1,0-0.1c0,0-0.2-0.4-0.4-0.4  c-0.6-0.7-1.2-1.3-1.8-2c-0.1-0.1-0.2-0.2-0.3-0.3c0,0,0,0,0,0C67,111.6,69.5,113.7,72.3,115.7z"/><path class="st0" d="M71.9,116.2c-0.8,0-2.8-1.7-4.7-3.5c0-0.2,0-0.5,0-0.8C68.6,113.4,70.2,114.8,71.9,116.2z"/><path class="st0" d="M70.5,123c3.1,2.9-0.3,1.5-0.9,0.3c0-0.1,0-0.2-0.1-0.2C69.9,123.1,70.2,123.1,70.5,123z"/><path class="st0" d="M71.3,122.9c-0.3,0.1-0.5,0.1-0.8,0.2c-0.1-0.1-0.2-0.2-0.3-0.3c0,0-0.7-0.3-0.7,0.4c-0.7,0.1-1.4,0.1-2.1,0.1  c-0.1-0.2-0.3-0.3-0.5-0.5c0,0.1-0.8-0.3-0.6,0.4c-0.6,0-1.3-0.1-1.9-0.2c-0.2-0.2-0.4-0.5-0.7-0.8c0,0-0.9-0.3-0.6,0.6c0,0,0,0,0,0  c-3.4-0.5-6.9-1.5-9.8-2.4c0-0.2,0-0.4,0-0.6c-0.2,0.1-0.3,0.3-0.5,0.4l-0.1,0c0-0.3,0.1-0.7,0.2-1c4.9,1.9,10.8,3,16,2.9  c0.5,0.3,1.1,0.5,1.7,0.8c0-0.2,0-0.3,0.1-0.4C70.9,122.7,71.1,122.8,71.3,122.9z"/><path class="st0" d="M70.1,122.2c0.2,0,0.5,0,0.7,0c0,0.1,0,0.3,0,0.4C70.5,122.5,70.3,122.3,70.1,122.2z"/><path class="st0" d="M70.1,122.2c0.2,0.1,0.4,0.2,0.6,0.4c0,0.1-0.1,0.3-0.1,0.4c-0.6-0.2-1.2-0.5-1.7-0.8  C69.4,122.2,69.7,122.2,70.1,122.2z"/><path class="st0" d="M68.3,143.3c1.8,0.3,2.6,0.2,2.8,0.9c-1.5,0.7-3.5-0.4-4.3-0.3c0,0,0,0,0,0c0.3-0.2,0.6-0.5,0.8-0.7  C67.9,143.2,68.2,143.3,68.3,143.3z"/><path class="st0" d="M70.2,122.8c0.1,0.1,0.2,0.2,0.3,0.3c-0.3,0-0.6,0.1-0.9,0.1C69.5,122.5,70.2,122.8,70.2,122.8z"/><path class="st0" d="M70.1,122.2c-0.4,0-0.7,0-1.1,0c-5.7-2.7-10-6.6-12.9-12c-1-1.4-1.8-3.6-2.1-5.7c0.2,0,0.3,0,0.5-0.1  c-0.2-0.2-0.4-0.4-0.6-0.6c-0.4-3.5,0.7-6.3,4.4-3.1c1.2,1.9,2.5,3.7,3.8,5.4c-0.1,0-0.3,0-0.5,0.1c0.1,0.3,0.1,0.6,0.2,0.9  c-2.1-2.9-4.7-8.4-6.7-6.6C53.2,110.4,62.6,117.8,70.1,122.2z"/><path class="st0" d="M67.5,123.3c3.9,3.9,0.5,2.4-1.1,0.1c0-0.1,0-0.1,0-0.2C66.7,123.2,67.1,123.3,67.5,123.3z"/><path class="st1" d="M69,122.2c-5.2,0-11.1-1.1-16-2.9c-0.1,0.3-0.2,0.7-0.2,1c-0.1,1.2,0.2,2.4,0.8,3.5c-1.2,0.1-2.3,0.2-3.3,0.2  c0.1-0.1,0.1-0.1,0.2-0.2c0-0.4-3-7.6-2.1-3c0.4,0.4,0.7,2.6,1.4,3.2c-0.6,0-1.2-0.1-1.8-0.2c0,0,0,0,0,0c-1.3-1.1-1.6-5.3-3.3-6.1  c-0.3,0.6,1.1,4.6,2.2,6c-0.7-0.1-1.3-0.3-2-0.5c0,0,0,0,0-0.1c-1.3-1.9-2.2-5.5-3.6-8c-1.1-0.2,1.1,5.7,2.5,7.7  c-1.2-0.4-2.2-0.9-3.2-1.6c-1.3-2-2.3-6-4.2-7.7c-0.4,0.4,1.2,4.2,2.5,6.5c-3.8-2.8-6.6-7-8.9-11.4c0.1,5,4.7,10,10,13.1  c0.2,0.2,0.4,0.3,0.5,0.3c4.8,2.7,10.1,3.9,13,2c2.1,3.5,7.5,6.2,11.5,7.1c-1.9,2.9-5.9,4.6-9.3,5.2c0.1,0.2,0.3,0.5,0.4,0.7  c0.5,0.8,1.1,1.4,1.9,2c-0.5,0.4-1.2,0.8-1.8,1.1c0-0.1-0.1-0.2-0.1-0.3c-2.1-2.1-5.1-2.7-0.6,0.6c-0.5,0.2-1.1,0.4-1.7,0.5  c0-0.1,0-0.1,0-0.2c-0.8,0.1-2.4-2.5-3.6-2.9c0,0,0,0,0,0c0,0,0,0,0,0c-0.3-0.1-0.5-0.1-0.8,0.2c-0.1,0.3,0.2,0.5,0.5,0.5  c0.7,0.7,2,2.2,3,2.6c-0.6,0.2-1.2,0.3-1.9,0.4c0,0,0-0.1,0-0.1c-0.9,0.2-4.2-4-4.7-2.2c0.5,0.2,2.2,1.9,3.5,2.6  c-2.1,0.4-4.1,0.8-5.5,1.5c0.7,0.4,2.6,0.2,4.9-0.3l0.4,2c-1.8,0.1-4.1,1.5-6.2,0.9c-3.8,0-12.3-3.5-10.6-6.2  c3.3,1.6,19.6-6.6,17.9-9c0.1-0.1,0.1-0.1,0.2-0.2c-0.6-1.9-1.4-0.8-3.6-0.5c-24,3.3-24.6-38-19.6-33.8c6.3,5.8,9.4,12.4,17.7,15  c1.7,0.7,4.7,0.5,5.5-0.3h0c0,0,0.1,0,0.1,0c0-0.2,0.1-0.3,0.1-0.5c0-0.2-0.1-0.5-0.2-0.9c0,0,0,0-0.1-0.1  c-11.7-10.3-18-28.7-12.6-44h0.1c13.5,8,14.5,28,23.8,40.6c0,0,0,0-0.1,0c0,0,0,0,0,0c-1.3-1.7-2.6-3.5-3.8-5.4  c-3.7-3.2-4.8-0.4-4.4,3.1c-1.7-1.8-3-3.8-4.1-5.9c0.4-1.8,0.7-3.6,1.2-5.5c0.1-0.1,0.2-0.2,0.1-0.4c0,0,0,0,0,0c0,0,0,0,0,0  c-0.1-0.1-0.2-0.3-0.4-0.5c-0.1,0-0.2,0.2-0.3,0.4c0,0-0.1,0-0.1,0c0,0.1-0.1,0.2,0,0.3c-0.4,1-1,3-1.1,4.4  c-0.6-1.2-1.1-2.5-1.5-3.8c0.3-1.2,0.9-2.9,1.4-4.9c-0.3-0.4-0.7-1.2-1.2,1.1c0.1,0.4-0.4,1.4-0.7,2.3c-0.3-1-0.6-2-0.9-3.1  c0,0,0.1,0,0.1-0.1c0.8-1.1,2-7.8-0.1-2.2c0,0.2-0.2,0.6-0.4,1c-0.7-2.8-1.3-5.6-1.9-8.2c-0.8,3,0.7,8.9,2.8,14.2  c2.4,5.9,5.5,11.3,7.3,11.6c0.3,2.1,1.1,4.4,2.1,5.7C59,115.7,63.3,119.6,69,122.2z M52,100.2c-0.1-1.3,2.2-4.7,1-6.2  C52.5,94.4,50.3,100.9,52,100.2z"/><path class="st0" d="M68.4,141.5c0,0.2,0,0.3-0.1,0.5c-0.1-0.2-0.1-0.4-0.2-0.5C68.2,141.5,68.3,141.5,68.4,141.5z"/><path class="st0" d="M68.4,142.2c-0.1,0-0.1,0-0.2,0c0-0.1,0.1-0.1,0.1-0.2C68.3,142.1,68.4,142.1,68.4,142.2z"/><path class="st0" d="M68.3,142c0,0.1,0,0.1-0.1,0.2c-0.4,0-0.8,0-1.3,0c0.3-0.2,0.7-0.4,1.1-0.6c0,0,0,0,0,0  C68.2,141.7,68.2,141.8,68.3,142z"/><path class="st0" d="M67,142.2c0.4,0,0.8,0.1,1.3,0c-0.1,0.3-0.4,0.6-0.7,1c-0.6-0.1-1.3-0.2-0.8,0.7c-0.7,0.6-1.6,1.2-2.4,1.7  c-0.5,0-1.2,0-0.8,0.5c-0.8,0.5-1.6,1.1-2.2,1.6c-0.3-0.1-0.7-0.2-0.9-0.1C61.6,146,63.6,144.2,67,142.2z"/><path class="st0" d="M68.1,141.5C68.1,141.5,68.1,141.5,68.1,141.5C68.1,141.5,68.1,141.5,68.1,141.5L68.1,141.5z"/><path class="st0" d="M57.1,136.9c2.8,3,7.2,4.8,10.9,4.6c-0.4,0.2-0.8,0.4-1.1,0.6c-2.9-0.2-6.1-1.2-8.5-2.9c0-0.1-0.1-0.2-0.3-0.3  c0,0,0,0,0,0c-0.8-0.6-1.4-1.3-1.9-2l0,0C56.6,137,56.8,136.9,57.1,136.9z"/><path class="st0" d="M67.5,123.3c-0.4,0-0.7,0-1.1,0c-0.1-0.7,0.6-0.3,0.6-0.4C67.2,123,67.3,123.1,67.5,123.3z"/><path class="st0" d="M66.8,143.9c-0.5-0.9,0.2-0.8,0.8-0.7C67.3,143.4,67.1,143.6,66.8,143.9z"/><path class="st0" d="M67.2,111.8C67.2,111.8,67.2,111.8,67.2,111.8c-0.1-0.1-0.3-0.2-0.4-0.4C67,111.4,67.2,111.8,67.2,111.8z"/><path class="st0" d="M66.8,111.4c0.1,0.2,0.3,0.3,0.4,0.5c0,0.3,0,0.5,0,0.8c-0.3-0.3-0.5-0.5-0.8-0.8c0,0,0,0,0-0.1  C66.5,111.5,66.6,111.4,66.8,111.4z"/><path class="st0" d="M66.4,111.9c0.3,0.3,0.5,0.5,0.8,0.8C66.9,115.9,66,113.1,66.4,111.9z"/><path class="st0" d="M64.9,145.7c7,0.8,1.4,1.4-1.1,0.7c-0.1-0.1-0.2-0.2-0.2-0.3c0.3-0.2,0.5-0.4,0.8-0.5  C64.6,145.6,64.8,145.7,64.9,145.7z"/><path class="st0" d="M66.8,111.4c-0.1,0-0.3,0.1-0.4,0.4c0,0,0,0,0,0.1c-0.6-0.6-1.2-1.2-1.7-1.7c0-0.3,0-0.7,0-1.1  c0.1,0.1,0.2,0.2,0.3,0.3C65.6,110.1,66.1,110.7,66.8,111.4z"/><path class="st0" d="M65.5,130.5c0.2,0,0.3,0.1,0.5,0.1c0,3.1-5.4,5.8-8.9,6.3c-0.2-0.2-0.4-0.4-0.5-0.6c-0.1,0.2-0.2,0.5-0.3,0.7  l0,0c-0.1-0.2-0.3-0.5-0.4-0.7c3.4-0.7,7.4-2.3,9.3-5.2c0.2,0,0.3,0.1,0.5,0.1c-0.1-0.2-0.2-0.4-0.2-0.6v0L65.5,130.5z"/><path class="st0" d="M64.4,123.1c3.1,3.7,0.1,2.1-1.2-0.2C63.6,123,64,123,64.4,123.1z"/><path class="st0" d="M65.7,131.2c-0.2,0-0.3-0.1-0.5-0.1c0.1-0.2,0.2-0.3,0.3-0.5C65.5,130.8,65.6,131,65.7,131.2z"/><path class="st0" d="M65.5,130.5l0,0.1v0c-0.1,0.2-0.2,0.3-0.3,0.5c-4-0.9-9.4-3.6-11.5-7.1c0.1-0.1,0.2-0.2,0.3-0.3  c-0.2,0-0.3,0-0.5,0c-0.6-1.1-0.9-2.3-0.8-3.5l0.1,0c0.2,0.1,0.4,0.1,0.5,0.2C54.1,126.5,60.6,129.3,65.5,130.5z"/><path class="st0" d="M64.7,109.1C64.7,109.1,64.7,109.1,64.7,109.1c-0.3-0.2-0.5-0.5-0.7-0.8c0,0,0,0,0,0  C64.2,108.5,64.5,108.8,64.7,109.1z"/><path class="st0" d="M64.7,108.4c0,0.2,0,0.5,0,0.7c-0.2-0.3-0.5-0.5-0.7-0.8C64.3,107.9,64.6,108.1,64.7,108.4z"/><path class="st0" d="M64.7,109.1c0,0.4,0,0.8,0,1.1c-0.3-0.3-0.6-0.7-0.9-0.9c0-0.3,0-0.6,0.1-0.8c0,0,0-0.1,0.1-0.1  C64.2,108.6,64.4,108.8,64.7,109.1z"/><path class="st0" d="M64.7,110.2c-0.1,4.7-1,1.6-0.9-0.9C64.1,109.5,64.4,109.8,64.7,110.2z"/><path class="st0" d="M64.4,123.1c-0.4-0.1-0.8-0.1-1.2-0.2c0,0,0,0,0,0c-0.3-0.9,0.6-0.6,0.6-0.6C64,122.6,64.3,122.8,64.4,123.1z"/><path class="st0" d="M64.3,145.6c-0.3,0.2-0.5,0.4-0.8,0.5C63.2,145.6,63.8,145.6,64.3,145.6z"/><path class="st0" d="M61.8,147.8c1.8,0.3,2.6,0.2,2.8,0.9c-1.3,0.6-3.1-0.2-4-0.3c0.2-0.2,0.5-0.4,0.7-0.7  C61.6,147.8,61.7,147.8,61.8,147.8z"/><path class="st0" d="M63,107.1c0.3,0.4,0.7,0.8,1,1.1c0,0,0,0,0,0C63.6,107.9,63.3,107.5,63,107.1z"/><path class="st0" d="M64,108.3C63.9,108.3,63.9,108.4,64,108.3c-0.1,0.4-0.2,0.7-0.2,0.9c-0.4-0.4-0.6-0.7-0.8-0.8  c-0.2-0.2-0.4-0.4-0.7-0.6c0-0.6,0.1-1.2,0-1.5c0.2,0.2,0.3,0.4,0.5,0.7c0,0,0.1,0.1,0.1,0.2C63.3,107.5,63.6,107.9,64,108.3z"/><path class="st0" d="M62.3,106.3c0.1,0.3,0.1,0.8,0,1.5c-0.2-0.2-0.4-0.4-0.6-0.7v0c-0.1-0.3-0.1-0.6-0.2-0.9  c0.2-0.1,0.4-0.2,0.5-0.1c0,0,0,0,0,0C62.2,106.2,62.2,106.2,62.3,106.3z"/><path class="st0" d="M62.3,107.8c0,0.4-0.1,0.8-0.1,1.1c-0.1-0.3-0.2-0.4-0.3-0.5c-0.1-0.4-0.2-0.8-0.3-1.3  C61.9,107.3,62.1,107.6,62.3,107.8z"/><path class="st0" d="M62.3,106.2c0,0,0,0.1,0.1,0.2c-0.1-0.1-0.2-0.2-0.2-0.3C62.1,106.1,62.2,106.1,62.3,106.2  C62.2,106.1,62.2,106.1,62.3,106.2z"/><path class="st0" d="M62.3,109c0,0.5,0.1,0.7,0,0.7c0,0,0,0,0,0c0,0,0,0,0,0v0C62.3,109.4,62.3,109.1,62.3,109  C62.3,108.9,62.3,109,62.3,109z"/><path class="st0" d="M62.3,109.7c0,0.2,0,0.4,0.1,0.6c-1.2,1.3-0.9-2.4-0.4-1.9C62.2,109,62.2,109.4,62.3,109.7L62.3,109.7  C62.3,109.6,62.3,109.6,62.3,109.7C62.3,109.6,62.3,109.6,62.3,109.7z"/><path class="st0" d="M62.3,108.9c0,0.2,0,0.4,0,0.7c0-0.2-0.1-0.5-0.3-1.2C62.1,108.5,62.2,108.7,62.3,108.9z"/><path class="st0" d="M61.3,147.7c-0.3,0.2-0.5,0.4-0.7,0.7c-0.1,0-0.2,0-0.2,0c-0.1-0.2-0.2-0.3-0.2-0.4c0.1-0.1,0.1-0.2,0.2-0.3  C60.7,147.6,61,147.7,61.3,147.7z"/><path class="st0" d="M60.4,147.6c-0.1,0.1-0.2,0.2-0.2,0.3C60.1,147.7,60.2,147.6,60.4,147.6z"/><path class="st0" d="M57.2,159.4c1.6-1.8,2.6-0.5,1.8,1c-1.5-2.3-2.2-0.2-2.6,2.1c-1.1,0.4-2.7,0.7-4.7,0.6  c-4.5,0.2-13.7-2.9-11.3-8.6c2.2-2.1,5.3-3.7,7.3-6c1.7-0.2,2.9-0.9,3.5-2c0.8,1.4-5.2,7.6-7.3,8C38,159.7,55,162.1,57.2,159.4z"/><path class="st0" d="M58.8,152c2.1,0.9-6.8,4.4-7.7,4c0.6-0.9,2-1.5,3.5-2c0.6,0.3,1.4,0.5,1.3-0.3c0,0,0-0.1-0.1-0.1  c0.5-0.2,1-0.4,1.5-0.6c0.6,0.2,1,0.1,0.6-0.3C58.2,152.5,58.6,152.3,58.8,152z"/><path class="st0" d="M58.5,139.3c0.2,1-5,2.9-9.3,3.8c-2.2,0.5-4.2,0.7-4.9,0.3c1.4-0.7,3.5-1.1,5.5-1.5c0.7,0.3,1.2,0.4,1.2-0.3  c0.6-0.1,1.3-0.3,1.9-0.4c0.4,0.2,0.8,0.2,0.9-0.3c0.6-0.2,1.1-0.3,1.7-0.5c0.1,0,0.1,0.1,0.2,0.1c0,0,0.7,0.1,0.5-0.4  c0.7-0.3,1.3-0.6,1.8-1.1C58.3,139.1,58.4,139.2,58.5,139.3z"/><path class="st0" d="M58.5,139.3c-0.1-0.1-0.2-0.2-0.4-0.3c0,0,0,0,0,0C58.4,139.1,58.5,139.2,58.5,139.3z"/><path class="st0" d="M57.8,152.7c0.4,0.4,0,0.4-0.6,0.3C57.4,152.9,57.6,152.8,57.8,152.7z"/><path class="st0" d="M56.4,162.5c0.4-2.3,1.1-4.4,2.6-2.1C58.6,161.2,57.8,162,56.4,162.5z"/><path class="st0" d="M57.8,152.7c-0.2,0.1-0.4,0.2-0.6,0.3c-0.7-0.2-1.7-0.6-2.5-1.2c-0.5-0.8,0.4-0.6,0.4-0.7  C56.7,151.9,57.5,152.4,57.8,152.7z"/><path class="st0" d="M56.6,136.3c0.2,0.2,0.3,0.4,0.5,0.6c-0.3,0.1-0.6,0.1-0.8,0.1C56.4,136.8,56.5,136.5,56.6,136.3z"/><path class="st0" d="M56.3,140.1c0.2,0.5-0.5,0.4-0.5,0.4c-0.1-0.1-0.1-0.1-0.2-0.1C55.9,140.3,56.1,140.2,56.3,140.1z"/><path class="st0" d="M56.2,139.8c0.1,0.1,0.1,0.2,0.1,0.3c-0.2,0.1-0.5,0.2-0.7,0.3C51.1,137.1,54.1,137.7,56.2,139.8z"/><path class="st0" d="M55.9,153.7c0.1,0.8-0.7,0.6-1.3,0.3c0.4-0.1,0.8-0.3,1.2-0.4C55.9,153.6,55.9,153.7,55.9,153.7z"/><path class="st0" d="M55.8,153.6c-0.4,0.1-0.8,0.3-1.2,0.4c-0.3-0.2-0.6-0.3-0.7-0.3C53,152.3,55.2,153.2,55.8,153.6z"/><path class="st0" d="M53.9,103.8c0.2,0.2,0.4,0.4,0.6,0.6c-0.1,0.1-0.3,0.1-0.5,0.1C54,104.2,53.9,104,53.9,103.8z"/><path class="st0" d="M53.9,103.8c0,0.2,0,0.5,0.1,0.7c-1.7-0.3-4.9-5.6-7.3-11.6l0.1-0.1c0.1,0.2,0.3,0.3,0.6,0.2  c0-0.1,0.1-0.2,0.1-0.4c0.5,1.3,1,2.5,1.5,3.8c-0.1,1,0.1,1.7,0.6,1.5c0,0,0-0.1,0-0.2C50.9,100,52.3,102,53.9,103.8z"/><path class="st0" d="M54,123.7c-0.1,0.1-0.2,0.2-0.3,0.3c0-0.1-0.1-0.1-0.1-0.2C53.7,123.7,53.8,123.7,54,123.7z"/><path class="st0" d="M50.4,137.8c1.2,0.4,2.8,2.9,3.6,2.9c0,0.1,0,0.2,0,0.2c-0.3,0.1-0.6,0.2-0.9,0.3c-0.9-0.5-2.3-2-3-2.6  C50.4,138.6,50.6,138.4,50.4,137.8z"/><path class="st0" d="M53.1,141.2c0.3-0.1,0.6-0.2,0.9-0.3C53.8,141.4,53.5,141.4,53.1,141.2z"/><path class="st0" d="M53.5,123.7c0,0.1,0.1,0.1,0.1,0.2c-2.9,1.9-8.2,0.8-13-2c0.1,0,0.2-0.1,0.3-0.4c-0.1-0.1-0.2-0.3-0.3-0.4  c1,0.6,2.1,1.1,3.2,1.6c0.5,0.7,0.9,1,1.1,0.3c0.6,0.2,1.3,0.4,2,0.5c0.4,0.4,0.8,0.6,1,0.2c0.6,0.1,1.2,0.1,1.8,0.2  c0.2,0.1,0.3,0.2,0.5,0C51.3,123.9,52.4,123.9,53.5,123.7z"/><path class="st0" d="M53.4,120.5c-0.2-0.1-0.4-0.1-0.5-0.2c0.2-0.1,0.3-0.3,0.5-0.4C53.4,120.1,53.4,120.3,53.4,120.5z"/><path class="st0" d="M53,94c1.2,1.5-1.1,4.9-1,6.2C50.3,100.9,52.5,94.4,53,94z"/><path class="st0" d="M51.4,145.6c0,0.3-0.1,0.7-0.3,0.9c-0.2-0.4-0.8-0.4-2,0c-0.4,0.8-0.8,1.4-1.4,2c-8.1,1.1-25.6-7.3-14.6-11.2  c5-0.1,9.3-1.7,12.8-4.4c1.9-0.1,3.6-0.8,4.8-2.1c1.8,2.4-14.6,10.6-17.9,9c-1.7,2.7,6.8,6.2,10.6,6.2c2.1,0.6,4.4-0.8,6.2-0.9  C50.3,145.1,50.9,145.2,51.4,145.6z"/><path class="st0" d="M51.2,141.5C51.2,141.5,51.2,141.6,51.2,141.5c-0.4,0.2-0.8,0.3-1.3,0.4c-1.2-0.7-3-2.4-3.5-2.6  C47,137.5,50.3,141.7,51.2,141.5z"/><path class="st0" d="M49.9,141.9c0.4-0.1,0.8-0.2,1.2-0.3C51.1,142.2,50.6,142.2,49.9,141.9z"/><path class="st0" d="M51.1,91.9c0.1,0.2,0,0.4-0.1,0.4C51,92.2,51.1,92.1,51.1,91.9z"/><path class="st0" d="M51.1,91.9C51.1,91.9,51.1,91.9,51.1,91.9C51.1,91.9,51.1,91.9,51.1,91.9C51.1,91.9,51.1,91.9,51.1,91.9z"/><path class="st0" d="M51.1,91.9c0,0.1-0.1,0.3-0.1,0.4c-0.2,0.2-0.7,0.1-0.8-0.3c0-0.1,0.1-0.2,0.1-0.3  C50.6,91.8,50.8,91.9,51.1,91.9C51.1,91.9,51.1,91.9,51.1,91.9z"/><path class="st0" d="M50,109.2c1.2,0.8,1.4,1.4,1,1.8h0c-1.4,0.1-2.9-0.6-4.4-2C47.7,109.2,48.8,109.3,50,109.2z"/><path class="st0" d="M51,130.6c-0.1,0.1-0.1,0.2-0.2,0.2c-0.2-0.3-0.8-0.6-1.9-0.6c-0.9,1-1.9,1.9-3,2.7  c-6.5,0.5-15.7-5.1-18.5-11.3c-2.6-2.5-10-33,1.2-27.5c6,4.9,10.5,13.4,17.9,14.9c1.5,1.4,3,2.2,4.4,2c-0.8,0.8-3.8,0.9-5.5,0.3  c-8.3-2.6-11.4-9.2-17.7-15c-5-4.2-4.4,37.1,19.6,33.8C49.6,129.8,50.4,128.7,51,130.6z"/><path class="st0" d="M50.2,92.1c0,0.4,0.5,0.5,0.8,0.3c-0.5,1.9-0.8,3.7-1.2,5.5c-0.2-0.4-0.5-0.9-0.7-1.4  C49.2,95.1,49.8,93.1,50.2,92.1z"/><path class="st0" d="M50.7,91.4c0.2,0.2,0.3,0.4,0.4,0.5c-0.3,0-0.4-0.1-0.7-0.1C50.5,91.6,50.6,91.4,50.7,91.4z"/><path class="st0" d="M49.1,146.5c1.2-0.4,1.8-0.3,2,0c-0.5,1.1-1.8,1.8-3.5,2C48.3,147.9,48.7,147.2,49.1,146.5z"/><path class="st0" d="M50.4,137.8c0.2,0.5,0,0.7-0.3,0.7c-0.2-0.2-0.3-0.3-0.4-0.3C49.9,138.1,50.2,137.9,50.4,137.8  C50.4,137.8,50.4,137.8,50.4,137.8z"/><path class="st0" d="M50.4,137.8C50.4,137.8,50.4,137.8,50.4,137.8C50.4,137.8,50.4,137.8,50.4,137.8  C50.4,137.8,50.4,137.8,50.4,137.8z"/><path class="st0" d="M50.3,91.8C50.3,91.8,50.4,91.8,50.3,91.8c0,0.1,0,0.2,0,0.3C50.2,92,50.3,91.9,50.3,91.8z"/><path class="st0" d="M50.4,123.7c-0.1,0.1-0.1,0.1-0.2,0.2c-0.2,0-0.4,0-0.5,0c-0.6-0.6-1-2.8-1.4-3.2  C47.4,116.1,50.4,123.3,50.4,123.7z"/><path class="st0" d="M49.6,138c0.2-0.2,0.5-0.3,0.8-0.2c-0.2,0.1-0.5,0.3-0.7,0.4c0.1,0,0.2,0.2,0.4,0.3  C49.8,138.5,49.5,138.3,49.6,138z"/><path class="st0" d="M50.2,123.9c-0.2,0.2-0.4,0.1-0.5,0C49.8,123.9,50,123.9,50.2,123.9z"/><path class="st0" d="M49.8,97.8c0,0.1,0,0.1,0,0.2c-0.6,0.2-0.7-0.5-0.6-1.5C49.4,96.9,49.6,97.4,49.8,97.8z"/><path class="st0" d="M48.9,130.2c1,0.1,1.6,0.3,1.9,0.6c-1.3,1.3-2.9,1.9-4.8,2.1C47,132.1,48,131.2,48.9,130.2z"/><path class="st0" d="M47.8,88.9c0.5-2.3,0.9-1.5,1.2-1.1c-0.5,2-1.1,3.7-1.4,4.9c-0.2-0.5-0.4-1-0.5-1.5  C47.4,90.3,47.8,89.3,47.8,88.9z"/><path class="st0" d="M47.9,123.7C47.9,123.7,47.9,123.7,47.9,123.7c-0.4,0-0.7-0.1-1.1-0.2c-1.2-1.3-2.5-5.3-2.2-6  C46.3,118.4,46.6,122.6,47.9,123.7z"/><path class="st0" d="M47.1,91.2c0.2,0.5,0.3,1,0.5,1.5c0,0.1-0.1,0.3-0.1,0.4c-0.4,0.1-0.6,0-0.6-0.2C46.7,92.5,46.9,91.9,47.1,91.2  z"/><path class="st0" d="M47.9,123.7c-0.3,0.4-0.7,0.3-1-0.2C47.2,123.6,47.5,123.7,47.9,123.7z"/><path class="st0" d="M46.2,85.9c2.1-5.6,0.9,1.1,0.1,2.2c0,0-0.1,0-0.1,0.1c-0.1-0.4-0.2-0.8-0.3-1.3C46,86.5,46.2,86.1,46.2,85.9z"/><path class="st0" d="M46.8,92.9l-0.1,0.1c-2.2-5.4-3.7-11.2-2.8-14.2c0.6,2.6,1.2,5.4,1.9,8.2c-0.3,0.8-0.5,1.6,0.3,1.3  c0.3,1,0.6,2.1,0.9,3.1C46.9,91.9,46.7,92.5,46.8,92.9z"/><path class="st0" d="M45.8,86.9c0.1,0.4,0.2,0.8,0.3,1.3C45.3,88.5,45.5,87.6,45.8,86.9z"/><path class="st0" d="M44.9,123C44.9,123,44.9,123,44.9,123c-0.4,0-0.7-0.2-1.1-0.3c-1.4-2.1-3.6-7.9-2.5-7.7  C42.7,117.5,43.6,121.1,44.9,123z"/><path class="st0" d="M44.9,123.1c-0.1,0.6-0.6,0.4-1.1-0.3C44.2,122.8,44.5,123,44.9,123.1z"/><path class="st0" d="M40.6,121.1c0.1,0.2,0.2,0.3,0.3,0.4c0,0.3-0.2,0.4-0.3,0.4c-0.2-0.1-0.3-0.2-0.5-0.3c-0.3-0.3-0.7-0.9-1.2-1.7  C39.5,120.4,40,120.8,40.6,121.1z"/><path class="st0" d="M40.6,122c-0.1,0-0.3-0.1-0.5-0.3C40.3,121.8,40.4,121.9,40.6,122z"/><path class="st0" d="M40.6,121.1c-0.6-0.3-1.1-0.7-1.6-1.1c-1.4-2.4-2.9-6.1-2.5-6.5C38.3,115.2,39.3,119.1,40.6,121.1z"/><path class="st0" d="M38.9,120c0.4,0.7,0.8,1.3,1.2,1.7c-5.3-3.1-9.9-8.1-10-13.1C32.4,113,35.2,117.2,38.9,120z"/><path class="st0" d="M38.3,65.4C38.3,65.5,38.2,65.2,38.3,65.4L38.3,65.4z"/></svg>
</svg>